<?xml version="1.0" encoding="utf-8" standalone="no"?>
<!DOCTYPE svg PUBLIC "-//W3C//DTD SVG 1.1//EN"
  "http://www.w3.org/Graphics/SVG/1.1/DTD/svg11.dtd">
<!-- Created with matplotlib (http://matplotlib.org/) -->
<svg height="613pt" version="1.1" viewBox="0 0 1170 613" width="1170pt" xmlns="http://www.w3.org/2000/svg" xmlns:xlink="http://www.w3.org/1999/xlink">
 <defs>
  <style type="text/css">
*{stroke-linecap:butt;stroke-linejoin:round;}
  </style>
 </defs>
 <g id="figure_1">
  <g id="patch_1">
   <path d="
M0 613.8
L1170.9 613.8
L1170.9 0
L0 0
z
" style="fill:#ffffff;"/>
  </g>
  <g id="axes_1">
   <g id="patch_2">
    <path d="
M175.635 365.211
L509.119 365.211
L509.119 40.5108
L175.635 40.5108
z
" style="fill:#ffffff;"/>
   </g>
   <g id="patch_3">
    <path clip-path="url(#p8c20a172c8)" d="
M190.793 350.452
L218.354 350.452
L218.354 181.087
L190.793 181.087
z
" style="fill:#0000ff;opacity:0.3;stroke:#000000;"/>
   </g>
   <g id="patch_4">
    <path clip-path="url(#p8c20a172c8)" d="
M225.244 350.452
L252.805 350.452
L252.805 120.437
L225.244 120.437
z
" style="fill:#0000ff;opacity:0.3;stroke:#000000;"/>
   </g>
   <g id="patch_5">
    <path clip-path="url(#p8c20a172c8)" d="
M259.695 350.452
L287.256 350.452
L287.256 172.455
L259.695 172.455
z
" style="fill:#0000ff;opacity:0.3;stroke:#000000;"/>
   </g>
   <g id="patch_6">
    <path clip-path="url(#p8c20a172c8)" d="
M294.146 350.452
L321.707 350.452
L321.707 181.497
L294.146 181.497
z
" style="fill:#0000ff;opacity:0.3;stroke:#000000;"/>
   </g>
   <g id="patch_7">
    <path clip-path="url(#p8c20a172c8)" d="
M328.597 350.452
L356.157 350.452
L356.157 129.007
L328.597 129.007
z
" style="fill:#0000ff;opacity:0.3;stroke:#000000;"/>
   </g>
   <g id="patch_8">
    <path clip-path="url(#p8c20a172c8)" d="
M363.048 350.452
L390.608 350.452
L390.608 124.134
L363.048 124.134
z
" style="fill:#0000ff;opacity:0.3;stroke:#000000;"/>
   </g>
   <g id="patch_9">
    <path clip-path="url(#p8c20a172c8)" d="
M397.498 350.452
L425.059 350.452
L425.059 70.7171
L397.498 70.7171
z
" style="fill:#0000ff;opacity:0.3;stroke:#000000;"/>
   </g>
   <g id="patch_10">
    <path clip-path="url(#p8c20a172c8)" d="
M431.949 350.452
L459.51 350.452
L459.51 55.2699
L431.949 55.2699
z
" style="fill:#0000ff;opacity:0.3;stroke:#000000;"/>
   </g>
   <g id="patch_11">
    <path clip-path="url(#p8c20a172c8)" d="
M466.4 350.452
L493.961 350.452
L493.961 124.163
L466.4 124.163
z
" style="fill:#0000ff;opacity:0.3;stroke:#000000;"/>
   </g>
   <g id="matplotlib.axis_1">
    <g id="xtick_1">
     <g id="line2d_1">
      <defs>
       <path d="
M0 0
L0 -4" id="m93b0483c22" style="stroke:#000000;stroke-width:0.5;"/>
      </defs>
      <g>
       <use style="stroke:#000000;stroke-width:0.5;" x="190.793371692" xlink:href="#m93b0483c22" y="365.211"/>
      </g>
     </g>
     <g id="line2d_2">
      <defs>
       <path d="
M0 0
L0 4" id="m741efc42ff" style="stroke:#000000;stroke-width:0.5;"/>
      </defs>
      <g>
       <use style="stroke:#000000;stroke-width:0.5;" x="190.793371692" xlink:href="#m741efc42ff" y="40.5108"/>
      </g>
     </g>
     <g id="text_1">
      <!--  Max Wind SpeedMPH -->
      <defs>
       <path d="
M9.8125 72.9062
L24.5156 72.9062
L43.1094 23.2969
L61.8125 72.9062
L76.5156 72.9062
L76.5156 0
L66.8906 0
L66.8906 64.0156
L48.0938 14.0156
L38.1875 14.0156
L19.3906 64.0156
L19.3906 0
L9.8125 0
z
" id="DejaVuSans-4d"/>
       <path d="
M19.6719 64.7969
L19.6719 37.4062
L32.0781 37.4062
Q38.9688 37.4062 42.7188 40.9688
Q46.4844 44.5312 46.4844 51.125
Q46.4844 57.6719 42.7188 61.2344
Q38.9688 64.7969 32.0781 64.7969
z

M9.8125 72.9062
L32.0781 72.9062
Q44.3438 72.9062 50.6094 67.3594
Q56.8906 61.8125 56.8906 51.125
Q56.8906 40.3281 50.6094 34.8125
Q44.3438 29.2969 32.0781 29.2969
L19.6719 29.2969
L19.6719 0
L9.8125 0
z
" id="DejaVuSans-50"/>
       <path d="
M9.8125 72.9062
L19.6719 72.9062
L19.6719 43.0156
L55.5156 43.0156
L55.5156 72.9062
L65.375 72.9062
L65.375 0
L55.5156 0
L55.5156 34.7188
L19.6719 34.7188
L19.6719 0
L9.8125 0
z
" id="DejaVuSans-48"/>
       <path d="
M54.8906 33.0156
L54.8906 0
L45.9062 0
L45.9062 32.7188
Q45.9062 40.4844 42.875 44.3281
Q39.8438 48.1875 33.7969 48.1875
Q26.5156 48.1875 22.3125 43.5469
Q18.1094 38.9219 18.1094 30.9062
L18.1094 0
L9.07812 0
L9.07812 54.6875
L18.1094 54.6875
L18.1094 46.1875
Q21.3438 51.125 25.7031 53.5625
Q30.0781 56 35.7969 56
Q45.2188 56 50.0469 50.1719
Q54.8906 44.3438 54.8906 33.0156" id="DejaVuSans-6e"/>
       <path id="DejaVuSans-20"/>
       <path d="
M54.8906 54.6875
L35.1094 28.0781
L55.9062 0
L45.3125 0
L29.3906 21.4844
L13.4844 0
L2.875 0
L24.125 28.6094
L4.6875 54.6875
L15.2812 54.6875
L29.7812 35.2031
L44.2812 54.6875
z
" id="DejaVuSans-78"/>
       <path d="
M9.42188 54.6875
L18.4062 54.6875
L18.4062 0
L9.42188 0
z

M9.42188 75.9844
L18.4062 75.9844
L18.4062 64.5938
L9.42188 64.5938
z
" id="DejaVuSans-69"/>
       <path d="
M53.5156 70.5156
L53.5156 60.8906
Q47.9062 63.5781 42.9219 64.8906
Q37.9375 66.2188 33.2969 66.2188
Q25.25 66.2188 20.875 63.0938
Q16.5 59.9688 16.5 54.2031
Q16.5 49.3594 19.4062 46.8906
Q22.3125 44.4375 30.4219 42.9219
L36.375 41.7031
Q47.4062 39.5938 52.6562 34.2969
Q57.9062 29 57.9062 20.125
Q57.9062 9.51562 50.7969 4.04688
Q43.7031 -1.42188 29.9844 -1.42188
Q24.8125 -1.42188 18.9688 -0.25
Q13.1406 0.921875 6.89062 3.21875
L6.89062 13.375
Q12.8906 10.0156 18.6562 8.29688
Q24.4219 6.59375 29.9844 6.59375
Q38.4219 6.59375 43.0156 9.90625
Q47.6094 13.2344 47.6094 19.3906
Q47.6094 24.75 44.3125 27.7812
Q41.0156 30.8125 33.5 32.3281
L27.4844 33.5
Q16.4531 35.6875 11.5156 40.375
Q6.59375 45.0625 6.59375 53.4219
Q6.59375 63.0938 13.4062 68.6562
Q20.2188 74.2188 32.1719 74.2188
Q37.3125 74.2188 42.625 73.2812
Q47.9531 72.3594 53.5156 70.5156" id="DejaVuSans-53"/>
       <path d="
M45.4062 46.3906
L45.4062 75.9844
L54.3906 75.9844
L54.3906 0
L45.4062 0
L45.4062 8.20312
Q42.5781 3.32812 38.25 0.953125
Q33.9375 -1.42188 27.875 -1.42188
Q17.9688 -1.42188 11.7344 6.48438
Q5.51562 14.4062 5.51562 27.2969
Q5.51562 40.1875 11.7344 48.0938
Q17.9688 56 27.875 56
Q33.9375 56 38.25 53.625
Q42.5781 51.2656 45.4062 46.3906
M14.7969 27.2969
Q14.7969 17.3906 18.875 11.75
Q22.9531 6.10938 30.0781 6.10938
Q37.2031 6.10938 41.2969 11.75
Q45.4062 17.3906 45.4062 27.2969
Q45.4062 37.2031 41.2969 42.8438
Q37.2031 48.4844 30.0781 48.4844
Q22.9531 48.4844 18.875 42.8438
Q14.7969 37.2031 14.7969 27.2969" id="DejaVuSans-64"/>
       <path d="
M56.2031 29.5938
L56.2031 25.2031
L14.8906 25.2031
Q15.4844 15.9219 20.4844 11.0625
Q25.4844 6.20312 34.4219 6.20312
Q39.5938 6.20312 44.4531 7.46875
Q49.3125 8.73438 54.1094 11.2812
L54.1094 2.78125
Q49.2656 0.734375 44.1875 -0.34375
Q39.1094 -1.42188 33.8906 -1.42188
Q20.7969 -1.42188 13.1562 6.1875
Q5.51562 13.8125 5.51562 26.8125
Q5.51562 40.2344 12.7656 48.1094
Q20.0156 56 32.3281 56
Q43.3594 56 49.7812 48.8906
Q56.2031 41.7969 56.2031 29.5938
M47.2188 32.2344
Q47.125 39.5938 43.0938 43.9844
Q39.0625 48.3906 32.4219 48.3906
Q24.9062 48.3906 20.3906 44.1406
Q15.875 39.8906 15.1875 32.1719
z
" id="DejaVuSans-65"/>
       <path d="
M3.32812 72.9062
L13.2812 72.9062
L28.6094 11.2812
L43.8906 72.9062
L54.9844 72.9062
L70.3125 11.2812
L85.5938 72.9062
L95.6094 72.9062
L77.2969 0
L64.8906 0
L49.5156 63.2812
L33.9844 0
L21.5781 0
z
" id="DejaVuSans-57"/>
       <path d="
M18.1094 8.20312
L18.1094 -20.7969
L9.07812 -20.7969
L9.07812 54.6875
L18.1094 54.6875
L18.1094 46.3906
Q20.9531 51.2656 25.2656 53.625
Q29.5938 56 35.5938 56
Q45.5625 56 51.7812 48.0938
Q58.0156 40.1875 58.0156 27.2969
Q58.0156 14.4062 51.7812 6.48438
Q45.5625 -1.42188 35.5938 -1.42188
Q29.5938 -1.42188 25.2656 0.953125
Q20.9531 3.32812 18.1094 8.20312
M48.6875 27.2969
Q48.6875 37.2031 44.6094 42.8438
Q40.5312 48.4844 33.4062 48.4844
Q26.2656 48.4844 22.1875 42.8438
Q18.1094 37.2031 18.1094 27.2969
Q18.1094 17.3906 22.1875 11.75
Q26.2656 6.10938 33.4062 6.10938
Q40.5312 6.10938 44.6094 11.75
Q48.6875 17.3906 48.6875 27.2969" id="DejaVuSans-70"/>
       <path d="
M34.2812 27.4844
Q23.3906 27.4844 19.1875 25
Q14.9844 22.5156 14.9844 16.5
Q14.9844 11.7188 18.1406 8.90625
Q21.2969 6.10938 26.7031 6.10938
Q34.1875 6.10938 38.7031 11.4062
Q43.2188 16.7031 43.2188 25.4844
L43.2188 27.4844
z

M52.2031 31.2031
L52.2031 0
L43.2188 0
L43.2188 8.29688
Q40.1406 3.32812 35.5469 0.953125
Q30.9531 -1.42188 24.3125 -1.42188
Q15.9219 -1.42188 10.9531 3.29688
Q6 8.01562 6 15.9219
Q6 25.1406 12.1719 29.8281
Q18.3594 34.5156 30.6094 34.5156
L43.2188 34.5156
L43.2188 35.4062
Q43.2188 41.6094 39.1406 45
Q35.0625 48.3906 27.6875 48.3906
Q23 48.3906 18.5469 47.2656
Q14.1094 46.1406 10.0156 43.8906
L10.0156 52.2031
Q14.9375 54.1094 19.5781 55.0469
Q24.2188 56 28.6094 56
Q40.4844 56 46.3438 49.8438
Q52.2031 43.7031 52.2031 31.2031" id="DejaVuSans-61"/>
      </defs>
      <g transform="translate(194.656496692 520.2469375)rotate(-90.0)scale(0.14 -0.14)">
       <use xlink:href="#DejaVuSans-20"/>
       <use x="31.787109375" xlink:href="#DejaVuSans-4d"/>
       <use x="118.06640625" xlink:href="#DejaVuSans-61"/>
       <use x="179.345703125" xlink:href="#DejaVuSans-78"/>
       <use x="238.525390625" xlink:href="#DejaVuSans-20"/>
       <use x="270.3125" xlink:href="#DejaVuSans-57"/>
       <use x="366.939453125" xlink:href="#DejaVuSans-69"/>
       <use x="394.72265625" xlink:href="#DejaVuSans-6e"/>
       <use x="458.1015625" xlink:href="#DejaVuSans-64"/>
       <use x="521.578125" xlink:href="#DejaVuSans-20"/>
       <use x="553.365234375" xlink:href="#DejaVuSans-53"/>
       <use x="616.841796875" xlink:href="#DejaVuSans-70"/>
       <use x="680.318359375" xlink:href="#DejaVuSans-65"/>
       <use x="741.841796875" xlink:href="#DejaVuSans-65"/>
       <use x="803.365234375" xlink:href="#DejaVuSans-64"/>
       <use x="866.841796875" xlink:href="#DejaVuSans-4d"/>
       <use x="953.12109375" xlink:href="#DejaVuSans-50"/>
       <use x="1013.42382812" xlink:href="#DejaVuSans-48"/>
      </g>
     </g>
    </g>
    <g id="xtick_2">
     <g id="line2d_3">
      <g>
       <use style="stroke:#000000;stroke-width:0.5;" x="225.244216445" xlink:href="#m93b0483c22" y="365.211"/>
      </g>
     </g>
     <g id="line2d_4">
      <g>
       <use style="stroke:#000000;stroke-width:0.5;" x="225.244216445" xlink:href="#m741efc42ff" y="40.5108"/>
      </g>
     </g>
     <g id="text_2">
      <!-- PrecipitationIn -->
      <defs>
       <path d="
M30.6094 48.3906
Q23.3906 48.3906 19.1875 42.75
Q14.9844 37.1094 14.9844 27.2969
Q14.9844 17.4844 19.1562 11.8438
Q23.3438 6.20312 30.6094 6.20312
Q37.7969 6.20312 41.9844 11.8594
Q46.1875 17.5312 46.1875 27.2969
Q46.1875 37.0156 41.9844 42.7031
Q37.7969 48.3906 30.6094 48.3906
M30.6094 56
Q42.3281 56 49.0156 48.375
Q55.7188 40.7656 55.7188 27.2969
Q55.7188 13.875 49.0156 6.21875
Q42.3281 -1.42188 30.6094 -1.42188
Q18.8438 -1.42188 12.1719 6.21875
Q5.51562 13.875 5.51562 27.2969
Q5.51562 40.7656 12.1719 48.375
Q18.8438 56 30.6094 56" id="DejaVuSans-6f"/>
       <path d="
M18.3125 70.2188
L18.3125 54.6875
L36.8125 54.6875
L36.8125 47.7031
L18.3125 47.7031
L18.3125 18.0156
Q18.3125 11.3281 20.1406 9.42188
Q21.9688 7.51562 27.5938 7.51562
L36.8125 7.51562
L36.8125 0
L27.5938 0
Q17.1875 0 13.2344 3.875
Q9.28125 7.76562 9.28125 18.0156
L9.28125 47.7031
L2.6875 47.7031
L2.6875 54.6875
L9.28125 54.6875
L9.28125 70.2188
z
" id="DejaVuSans-74"/>
       <path d="
M48.7812 52.5938
L48.7812 44.1875
Q44.9688 46.2969 41.1406 47.3438
Q37.3125 48.3906 33.4062 48.3906
Q24.6562 48.3906 19.8125 42.8438
Q14.9844 37.3125 14.9844 27.2969
Q14.9844 17.2812 19.8125 11.7344
Q24.6562 6.20312 33.4062 6.20312
Q37.3125 6.20312 41.1406 7.25
Q44.9688 8.29688 48.7812 10.4062
L48.7812 2.09375
Q45.0156 0.34375 40.9844 -0.53125
Q36.9688 -1.42188 32.4219 -1.42188
Q20.0625 -1.42188 12.7812 6.34375
Q5.51562 14.1094 5.51562 27.2969
Q5.51562 40.6719 12.8594 48.3281
Q20.2188 56 33.0156 56
Q37.1562 56 41.1094 55.1406
Q45.0625 54.2969 48.7812 52.5938" id="DejaVuSans-63"/>
       <path d="
M9.8125 72.9062
L19.6719 72.9062
L19.6719 0
L9.8125 0
z
" id="DejaVuSans-49"/>
       <path d="
M41.1094 46.2969
Q39.5938 47.1719 37.8125 47.5781
Q36.0312 48 33.8906 48
Q26.2656 48 22.1875 43.0469
Q18.1094 38.0938 18.1094 28.8125
L18.1094 0
L9.07812 0
L9.07812 54.6875
L18.1094 54.6875
L18.1094 46.1875
Q20.9531 51.1719 25.4844 53.5781
Q30.0312 56 36.5312 56
Q37.4531 56 38.5781 55.875
Q39.7031 55.7656 41.0625 55.5156
z
" id="DejaVuSans-72"/>
      </defs>
      <g transform="translate(229.107341445 467.1519375)rotate(-90.0)scale(0.14 -0.14)">
       <use xlink:href="#DejaVuSans-50"/>
       <use x="58.552734375" xlink:href="#DejaVuSans-72"/>
       <use x="97.416015625" xlink:href="#DejaVuSans-65"/>
       <use x="158.939453125" xlink:href="#DejaVuSans-63"/>
       <use x="213.919921875" xlink:href="#DejaVuSans-69"/>
       <use x="241.703125" xlink:href="#DejaVuSans-70"/>
       <use x="305.1796875" xlink:href="#DejaVuSans-69"/>
       <use x="332.962890625" xlink:href="#DejaVuSans-74"/>
       <use x="372.171875" xlink:href="#DejaVuSans-61"/>
       <use x="433.451171875" xlink:href="#DejaVuSans-74"/>
       <use x="472.66015625" xlink:href="#DejaVuSans-69"/>
       <use x="500.443359375" xlink:href="#DejaVuSans-6f"/>
       <use x="561.625" xlink:href="#DejaVuSans-6e"/>
       <use x="625.00390625" xlink:href="#DejaVuSans-49"/>
       <use x="654.49609375" xlink:href="#DejaVuSans-6e"/>
      </g>
     </g>
    </g>
    <g id="xtick_3">
     <g id="line2d_5">
      <g>
       <use style="stroke:#000000;stroke-width:0.5;" x="259.695061199" xlink:href="#m93b0483c22" y="365.211"/>
      </g>
     </g>
     <g id="line2d_6">
      <g>
       <use style="stroke:#000000;stroke-width:0.5;" x="259.695061199" xlink:href="#m741efc42ff" y="40.5108"/>
      </g>
     </g>
     <g id="text_3">
      <!--  CloudCover -->
      <defs>
       <path d="
M8.5 21.5781
L8.5 54.6875
L17.4844 54.6875
L17.4844 21.9219
Q17.4844 14.1562 20.5 10.2656
Q23.5312 6.39062 29.5938 6.39062
Q36.8594 6.39062 41.0781 11.0312
Q45.3125 15.6719 45.3125 23.6875
L45.3125 54.6875
L54.2969 54.6875
L54.2969 0
L45.3125 0
L45.3125 8.40625
Q42.0469 3.42188 37.7188 1
Q33.4062 -1.42188 27.6875 -1.42188
Q18.2656 -1.42188 13.375 4.4375
Q8.5 10.2969 8.5 21.5781
M31.1094 56
z
" id="DejaVuSans-75"/>
       <path d="
M2.98438 54.6875
L12.5 54.6875
L29.5938 8.79688
L46.6875 54.6875
L56.2031 54.6875
L35.6875 0
L23.4844 0
z
" id="DejaVuSans-76"/>
       <path d="
M9.42188 75.9844
L18.4062 75.9844
L18.4062 0
L9.42188 0
z
" id="DejaVuSans-6c"/>
       <path d="
M64.4062 67.2812
L64.4062 56.8906
Q59.4219 61.5312 53.7812 63.8125
Q48.1406 66.1094 41.7969 66.1094
Q29.2969 66.1094 22.6562 58.4688
Q16.0156 50.8281 16.0156 36.375
Q16.0156 21.9688 22.6562 14.3281
Q29.2969 6.6875 41.7969 6.6875
Q48.1406 6.6875 53.7812 8.98438
Q59.4219 11.2812 64.4062 15.9219
L64.4062 5.60938
Q59.2344 2.09375 53.4375 0.328125
Q47.6562 -1.42188 41.2188 -1.42188
Q24.6562 -1.42188 15.125 8.70312
Q5.60938 18.8438 5.60938 36.375
Q5.60938 53.9531 15.125 64.0781
Q24.6562 74.2188 41.2188 74.2188
Q47.75 74.2188 53.5312 72.4844
Q59.3281 70.75 64.4062 67.2812" id="DejaVuSans-43"/>
      </defs>
      <g transform="translate(263.558186199 454.650375)rotate(-90.0)scale(0.14 -0.14)">
       <use xlink:href="#DejaVuSans-20"/>
       <use x="31.787109375" xlink:href="#DejaVuSans-43"/>
       <use x="101.611328125" xlink:href="#DejaVuSans-6c"/>
       <use x="129.39453125" xlink:href="#DejaVuSans-6f"/>
       <use x="190.576171875" xlink:href="#DejaVuSans-75"/>
       <use x="253.955078125" xlink:href="#DejaVuSans-64"/>
       <use x="317.431640625" xlink:href="#DejaVuSans-43"/>
       <use x="387.255859375" xlink:href="#DejaVuSans-6f"/>
       <use x="448.4375" xlink:href="#DejaVuSans-76"/>
       <use x="507.6171875" xlink:href="#DejaVuSans-65"/>
       <use x="569.140625" xlink:href="#DejaVuSans-72"/>
      </g>
     </g>
    </g>
    <g id="xtick_4">
     <g id="line2d_7">
      <g>
       <use style="stroke:#000000;stroke-width:0.5;" x="294.145905953" xlink:href="#m93b0483c22" y="365.211"/>
      </g>
     </g>
     <g id="line2d_8">
      <g>
       <use style="stroke:#000000;stroke-width:0.5;" x="294.145905953" xlink:href="#m741efc42ff" y="40.5108"/>
      </g>
     </g>
     <g id="text_4">
      <!--  Mean Sea Level PressureIn_Dest -->
      <defs>
       <path d="
M19.6719 64.7969
L19.6719 8.10938
L31.5938 8.10938
Q46.6875 8.10938 53.6875 14.9375
Q60.6875 21.7812 60.6875 36.5312
Q60.6875 51.1719 53.6875 57.9844
Q46.6875 64.7969 31.5938 64.7969
z

M9.8125 72.9062
L30.0781 72.9062
Q51.2656 72.9062 61.1719 64.0938
Q71.0938 55.2812 71.0938 36.5312
Q71.0938 17.6719 61.125 8.82812
Q51.1719 0 30.0781 0
L9.8125 0
z
" id="DejaVuSans-44"/>
       <path d="
M50.9844 -16.6094
L50.9844 -23.5781
L-0.984375 -23.5781
L-0.984375 -16.6094
z
" id="DejaVuSans-5f"/>
       <path d="
M44.2812 53.0781
L44.2812 44.5781
Q40.4844 46.5312 36.375 47.5
Q32.2812 48.4844 27.875 48.4844
Q21.1875 48.4844 17.8438 46.4375
Q14.5 44.3906 14.5 40.2812
Q14.5 37.1562 16.8906 35.375
Q19.2812 33.5938 26.5156 31.9844
L29.5938 31.2969
Q39.1562 29.25 43.1875 25.5156
Q47.2188 21.7812 47.2188 15.0938
Q47.2188 7.46875 41.1875 3.01562
Q35.1562 -1.42188 24.6094 -1.42188
Q20.2188 -1.42188 15.4531 -0.5625
Q10.6875 0.296875 5.42188 2
L5.42188 11.2812
Q10.4062 8.6875 15.2344 7.39062
Q20.0625 6.10938 24.8125 6.10938
Q31.1562 6.10938 34.5625 8.28125
Q37.9844 10.4531 37.9844 14.4062
Q37.9844 18.0625 35.5156 20.0156
Q33.0625 21.9688 24.7031 23.7812
L21.5781 24.5156
Q13.2344 26.2656 9.51562 29.9062
Q5.8125 33.5469 5.8125 39.8906
Q5.8125 47.6094 11.2812 51.7969
Q16.75 56 26.8125 56
Q31.7812 56 36.1719 55.2656
Q40.5781 54.5469 44.2812 53.0781" id="DejaVuSans-73"/>
       <path d="
M9.8125 72.9062
L19.6719 72.9062
L19.6719 8.29688
L55.1719 8.29688
L55.1719 0
L9.8125 0
z
" id="DejaVuSans-4c"/>
      </defs>
      <g transform="translate(297.814343453 599.804125)rotate(-90.0)scale(0.14 -0.14)">
       <use xlink:href="#DejaVuSans-20"/>
       <use x="31.787109375" xlink:href="#DejaVuSans-4d"/>
       <use x="118.06640625" xlink:href="#DejaVuSans-65"/>
       <use x="179.58984375" xlink:href="#DejaVuSans-61"/>
       <use x="240.869140625" xlink:href="#DejaVuSans-6e"/>
       <use x="304.248046875" xlink:href="#DejaVuSans-20"/>
       <use x="336.03515625" xlink:href="#DejaVuSans-53"/>
       <use x="399.51171875" xlink:href="#DejaVuSans-65"/>
       <use x="461.03515625" xlink:href="#DejaVuSans-61"/>
       <use x="522.314453125" xlink:href="#DejaVuSans-20"/>
       <use x="554.1015625" xlink:href="#DejaVuSans-4c"/>
       <use x="608.064453125" xlink:href="#DejaVuSans-65"/>
       <use x="669.587890625" xlink:href="#DejaVuSans-76"/>
       <use x="728.767578125" xlink:href="#DejaVuSans-65"/>
       <use x="790.291015625" xlink:href="#DejaVuSans-6c"/>
       <use x="818.07421875" xlink:href="#DejaVuSans-20"/>
       <use x="849.861328125" xlink:href="#DejaVuSans-50"/>
       <use x="908.4140625" xlink:href="#DejaVuSans-72"/>
       <use x="947.27734375" xlink:href="#DejaVuSans-65"/>
       <use x="1008.80078125" xlink:href="#DejaVuSans-73"/>
       <use x="1060.90039062" xlink:href="#DejaVuSans-73"/>
       <use x="1113.0" xlink:href="#DejaVuSans-75"/>
       <use x="1176.37890625" xlink:href="#DejaVuSans-72"/>
       <use x="1215.2421875" xlink:href="#DejaVuSans-65"/>
       <use x="1276.765625" xlink:href="#DejaVuSans-49"/>
       <use x="1306.2578125" xlink:href="#DejaVuSans-6e"/>
       <use x="1369.63671875" xlink:href="#DejaVuSans-5f"/>
       <use x="1419.63671875" xlink:href="#DejaVuSans-44"/>
       <use x="1496.63867188" xlink:href="#DejaVuSans-65"/>
       <use x="1558.16210938" xlink:href="#DejaVuSans-73"/>
       <use x="1610.26171875" xlink:href="#DejaVuSans-74"/>
      </g>
     </g>
    </g>
    <g id="xtick_5">
     <g id="line2d_9">
      <g>
       <use style="stroke:#000000;stroke-width:0.5;" x="328.596750706" xlink:href="#m93b0483c22" y="365.211"/>
      </g>
     </g>
     <g id="line2d_10">
      <g>
       <use style="stroke:#000000;stroke-width:0.5;" x="328.596750706" xlink:href="#m741efc42ff" y="40.5108"/>
      </g>
     </g>
     <g id="text_5">
      <!-- PrecipitationIn_Dest -->
      <g transform="translate(332.265188206 507.181)rotate(-90.0)scale(0.14 -0.14)">
       <use xlink:href="#DejaVuSans-50"/>
       <use x="58.552734375" xlink:href="#DejaVuSans-72"/>
       <use x="97.416015625" xlink:href="#DejaVuSans-65"/>
       <use x="158.939453125" xlink:href="#DejaVuSans-63"/>
       <use x="213.919921875" xlink:href="#DejaVuSans-69"/>
       <use x="241.703125" xlink:href="#DejaVuSans-70"/>
       <use x="305.1796875" xlink:href="#DejaVuSans-69"/>
       <use x="332.962890625" xlink:href="#DejaVuSans-74"/>
       <use x="372.171875" xlink:href="#DejaVuSans-61"/>
       <use x="433.451171875" xlink:href="#DejaVuSans-74"/>
       <use x="472.66015625" xlink:href="#DejaVuSans-69"/>
       <use x="500.443359375" xlink:href="#DejaVuSans-6f"/>
       <use x="561.625" xlink:href="#DejaVuSans-6e"/>
       <use x="625.00390625" xlink:href="#DejaVuSans-49"/>
       <use x="654.49609375" xlink:href="#DejaVuSans-6e"/>
       <use x="717.875" xlink:href="#DejaVuSans-5f"/>
       <use x="767.875" xlink:href="#DejaVuSans-44"/>
       <use x="844.876953125" xlink:href="#DejaVuSans-65"/>
       <use x="906.400390625" xlink:href="#DejaVuSans-73"/>
       <use x="958.5" xlink:href="#DejaVuSans-74"/>
      </g>
     </g>
    </g>
    <g id="xtick_6">
     <g id="line2d_11">
      <g>
       <use style="stroke:#000000;stroke-width:0.5;" x="363.04759546" xlink:href="#m93b0483c22" y="365.211"/>
      </g>
     </g>
     <g id="line2d_12">
      <g>
       <use style="stroke:#000000;stroke-width:0.5;" x="363.04759546" xlink:href="#m741efc42ff" y="40.5108"/>
      </g>
     </g>
     <g id="text_6">
      <!--  CloudCover_Dest -->
      <g transform="translate(366.71603296 493.491625)rotate(-90.0)scale(0.14 -0.14)">
       <use xlink:href="#DejaVuSans-20"/>
       <use x="31.787109375" xlink:href="#DejaVuSans-43"/>
       <use x="101.611328125" xlink:href="#DejaVuSans-6c"/>
       <use x="129.39453125" xlink:href="#DejaVuSans-6f"/>
       <use x="190.576171875" xlink:href="#DejaVuSans-75"/>
       <use x="253.955078125" xlink:href="#DejaVuSans-64"/>
       <use x="317.431640625" xlink:href="#DejaVuSans-43"/>
       <use x="387.255859375" xlink:href="#DejaVuSans-6f"/>
       <use x="448.4375" xlink:href="#DejaVuSans-76"/>
       <use x="507.6171875" xlink:href="#DejaVuSans-65"/>
       <use x="569.140625" xlink:href="#DejaVuSans-72"/>
       <use x="610.25390625" xlink:href="#DejaVuSans-5f"/>
       <use x="660.25390625" xlink:href="#DejaVuSans-44"/>
       <use x="737.255859375" xlink:href="#DejaVuSans-65"/>
       <use x="798.779296875" xlink:href="#DejaVuSans-73"/>
       <use x="850.87890625" xlink:href="#DejaVuSans-74"/>
      </g>
     </g>
    </g>
    <g id="xtick_7">
     <g id="line2d_13">
      <g>
       <use style="stroke:#000000;stroke-width:0.5;" x="397.498440213" xlink:href="#m93b0483c22" y="365.211"/>
      </g>
     </g>
     <g id="line2d_14">
      <g>
       <use style="stroke:#000000;stroke-width:0.5;" x="397.498440213" xlink:href="#m741efc42ff" y="40.5108"/>
      </g>
     </g>
     <g id="text_7">
      <!--  Events=Rain-Thunderstorm -->
      <defs>
       <path d="
M10.5938 45.4062
L73.1875 45.4062
L73.1875 37.2031
L10.5938 37.2031
z

M10.5938 25.4844
L73.1875 25.4844
L73.1875 17.1875
L10.5938 17.1875
z
" id="DejaVuSans-3d"/>
       <path d="
M4.89062 31.3906
L31.2031 31.3906
L31.2031 23.3906
L4.89062 23.3906
z
" id="DejaVuSans-2d"/>
       <path d="
M52 44.1875
Q55.375 50.25 60.0625 53.125
Q64.75 56 71.0938 56
Q79.6406 56 84.2812 50.0156
Q88.9219 44.0469 88.9219 33.0156
L88.9219 0
L79.8906 0
L79.8906 32.7188
Q79.8906 40.5781 77.0938 44.375
Q74.3125 48.1875 68.6094 48.1875
Q61.625 48.1875 57.5625 43.5469
Q53.5156 38.9219 53.5156 30.9062
L53.5156 0
L44.4844 0
L44.4844 32.7188
Q44.4844 40.625 41.7031 44.4062
Q38.9219 48.1875 33.1094 48.1875
Q26.2188 48.1875 22.1562 43.5312
Q18.1094 38.875 18.1094 30.9062
L18.1094 0
L9.07812 0
L9.07812 54.6875
L18.1094 54.6875
L18.1094 46.1875
Q21.1875 51.2188 25.4844 53.6094
Q29.7812 56 35.6875 56
Q41.6562 56 45.8281 52.9688
Q50 49.9531 52 44.1875" id="DejaVuSans-6d"/>
       <path d="
M9.8125 72.9062
L55.9062 72.9062
L55.9062 64.5938
L19.6719 64.5938
L19.6719 43.0156
L54.3906 43.0156
L54.3906 34.7188
L19.6719 34.7188
L19.6719 8.29688
L56.7812 8.29688
L56.7812 0
L9.8125 0
z
" id="DejaVuSans-45"/>
       <path d="
M54.8906 33.0156
L54.8906 0
L45.9062 0
L45.9062 32.7188
Q45.9062 40.4844 42.875 44.3281
Q39.8438 48.1875 33.7969 48.1875
Q26.5156 48.1875 22.3125 43.5469
Q18.1094 38.9219 18.1094 30.9062
L18.1094 0
L9.07812 0
L9.07812 75.9844
L18.1094 75.9844
L18.1094 46.1875
Q21.3438 51.125 25.7031 53.5625
Q30.0781 56 35.7969 56
Q45.2188 56 50.0469 50.1719
Q54.8906 44.3438 54.8906 33.0156" id="DejaVuSans-68"/>
       <path d="
M44.3906 34.1875
Q47.5625 33.1094 50.5625 29.5938
Q53.5625 26.0781 56.5938 19.9219
L66.6094 0
L56 0
L46.6875 18.7031
Q43.0625 26.0312 39.6719 28.4219
Q36.2812 30.8125 30.4219 30.8125
L19.6719 30.8125
L19.6719 0
L9.8125 0
L9.8125 72.9062
L32.0781 72.9062
Q44.5781 72.9062 50.7344 67.6719
Q56.8906 62.4531 56.8906 51.9062
Q56.8906 45.0156 53.6875 40.4688
Q50.4844 35.9375 44.3906 34.1875
M19.6719 64.7969
L19.6719 38.9219
L32.0781 38.9219
Q39.2031 38.9219 42.8438 42.2188
Q46.4844 45.5156 46.4844 51.9062
Q46.4844 58.2969 42.8438 61.5469
Q39.2031 64.7969 32.0781 64.7969
z
" id="DejaVuSans-52"/>
       <path d="
M-0.296875 72.9062
L61.375 72.9062
L61.375 64.5938
L35.5 64.5938
L35.5 0
L25.5938 0
L25.5938 64.5938
L-0.296875 64.5938
z
" id="DejaVuSans-54"/>
      </defs>
      <g transform="translate(401.361565213 565.0535)rotate(-90.0)scale(0.14 -0.14)">
       <use xlink:href="#DejaVuSans-20"/>
       <use x="31.787109375" xlink:href="#DejaVuSans-45"/>
       <use x="94.970703125" xlink:href="#DejaVuSans-76"/>
       <use x="154.150390625" xlink:href="#DejaVuSans-65"/>
       <use x="215.673828125" xlink:href="#DejaVuSans-6e"/>
       <use x="279.052734375" xlink:href="#DejaVuSans-74"/>
       <use x="318.26171875" xlink:href="#DejaVuSans-73"/>
       <use x="370.361328125" xlink:href="#DejaVuSans-3d"/>
       <use x="454.150390625" xlink:href="#DejaVuSans-52"/>
       <use x="521.3828125" xlink:href="#DejaVuSans-61"/>
       <use x="582.662109375" xlink:href="#DejaVuSans-69"/>
       <use x="610.4453125" xlink:href="#DejaVuSans-6e"/>
       <use x="673.82421875" xlink:href="#DejaVuSans-2d"/>
       <use x="700.783203125" xlink:href="#DejaVuSans-54"/>
       <use x="761.8671875" xlink:href="#DejaVuSans-68"/>
       <use x="825.24609375" xlink:href="#DejaVuSans-75"/>
       <use x="888.625" xlink:href="#DejaVuSans-6e"/>
       <use x="952.00390625" xlink:href="#DejaVuSans-64"/>
       <use x="1015.48046875" xlink:href="#DejaVuSans-65"/>
       <use x="1077.00390625" xlink:href="#DejaVuSans-72"/>
       <use x="1118.1171875" xlink:href="#DejaVuSans-73"/>
       <use x="1170.21679688" xlink:href="#DejaVuSans-74"/>
       <use x="1209.42578125" xlink:href="#DejaVuSans-6f"/>
       <use x="1270.60742188" xlink:href="#DejaVuSans-72"/>
       <use x="1309.97070312" xlink:href="#DejaVuSans-6d"/>
      </g>
     </g>
    </g>
    <g id="xtick_8">
     <g id="line2d_15">
      <g>
       <use style="stroke:#000000;stroke-width:0.5;" x="431.949284967" xlink:href="#m93b0483c22" y="365.211"/>
      </g>
     </g>
     <g id="line2d_16">
      <g>
       <use style="stroke:#000000;stroke-width:0.5;" x="431.949284967" xlink:href="#m741efc42ff" y="40.5108"/>
      </g>
     </g>
     <g id="text_8">
      <!--  Events_Dest=Rain-Thunderstorm -->
      <g transform="translate(435.617722467 604.2294375)rotate(-90.0)scale(0.14 -0.14)">
       <use xlink:href="#DejaVuSans-20"/>
       <use x="31.787109375" xlink:href="#DejaVuSans-45"/>
       <use x="94.970703125" xlink:href="#DejaVuSans-76"/>
       <use x="154.150390625" xlink:href="#DejaVuSans-65"/>
       <use x="215.673828125" xlink:href="#DejaVuSans-6e"/>
       <use x="279.052734375" xlink:href="#DejaVuSans-74"/>
       <use x="318.26171875" xlink:href="#DejaVuSans-73"/>
       <use x="370.361328125" xlink:href="#DejaVuSans-5f"/>
       <use x="420.361328125" xlink:href="#DejaVuSans-44"/>
       <use x="497.36328125" xlink:href="#DejaVuSans-65"/>
       <use x="558.88671875" xlink:href="#DejaVuSans-73"/>
       <use x="610.986328125" xlink:href="#DejaVuSans-74"/>
       <use x="650.1953125" xlink:href="#DejaVuSans-3d"/>
       <use x="733.984375" xlink:href="#DejaVuSans-52"/>
       <use x="801.216796875" xlink:href="#DejaVuSans-61"/>
       <use x="862.49609375" xlink:href="#DejaVuSans-69"/>
       <use x="890.279296875" xlink:href="#DejaVuSans-6e"/>
       <use x="953.658203125" xlink:href="#DejaVuSans-2d"/>
       <use x="980.6171875" xlink:href="#DejaVuSans-54"/>
       <use x="1041.70117188" xlink:href="#DejaVuSans-68"/>
       <use x="1105.08007812" xlink:href="#DejaVuSans-75"/>
       <use x="1168.45898438" xlink:href="#DejaVuSans-6e"/>
       <use x="1231.83789062" xlink:href="#DejaVuSans-64"/>
       <use x="1295.31445312" xlink:href="#DejaVuSans-65"/>
       <use x="1356.83789062" xlink:href="#DejaVuSans-72"/>
       <use x="1397.95117188" xlink:href="#DejaVuSans-73"/>
       <use x="1450.05078125" xlink:href="#DejaVuSans-74"/>
       <use x="1489.25976562" xlink:href="#DejaVuSans-6f"/>
       <use x="1550.44140625" xlink:href="#DejaVuSans-72"/>
       <use x="1589.8046875" xlink:href="#DejaVuSans-6d"/>
      </g>
     </g>
    </g>
    <g id="xtick_9">
     <g id="line2d_17">
      <g>
       <use style="stroke:#000000;stroke-width:0.5;" x="466.400129721" xlink:href="#m93b0483c22" y="365.211"/>
      </g>
     </g>
     <g id="line2d_18">
      <g>
       <use style="stroke:#000000;stroke-width:0.5;" x="466.400129721" xlink:href="#m741efc42ff" y="40.5108"/>
      </g>
     </g>
     <g id="text_9">
      <!-- DayOfWeek=3 -->
      <defs>
       <path d="
M37.1094 75.9844
L37.1094 68.5
L28.5156 68.5
Q23.6875 68.5 21.7969 66.5469
Q19.9219 64.5938 19.9219 59.5156
L19.9219 54.6875
L34.7188 54.6875
L34.7188 47.7031
L19.9219 47.7031
L19.9219 0
L10.8906 0
L10.8906 47.7031
L2.29688 47.7031
L2.29688 54.6875
L10.8906 54.6875
L10.8906 58.5
Q10.8906 67.625 15.1406 71.7969
Q19.3906 75.9844 28.6094 75.9844
z
" id="DejaVuSans-66"/>
       <path d="
M9.07812 75.9844
L18.1094 75.9844
L18.1094 31.1094
L44.9219 54.6875
L56.3906 54.6875
L27.3906 29.1094
L57.625 0
L45.9062 0
L18.1094 26.7031
L18.1094 0
L9.07812 0
z
" id="DejaVuSans-6b"/>
       <path d="
M39.4062 66.2188
Q28.6562 66.2188 22.3281 58.2031
Q16.0156 50.2031 16.0156 36.375
Q16.0156 22.6094 22.3281 14.5938
Q28.6562 6.59375 39.4062 6.59375
Q50.1406 6.59375 56.4219 14.5938
Q62.7031 22.6094 62.7031 36.375
Q62.7031 50.2031 56.4219 58.2031
Q50.1406 66.2188 39.4062 66.2188
M39.4062 74.2188
Q54.7344 74.2188 63.9062 63.9375
Q73.0938 53.6562 73.0938 36.375
Q73.0938 19.1406 63.9062 8.85938
Q54.7344 -1.42188 39.4062 -1.42188
Q24.0312 -1.42188 14.8125 8.82812
Q5.60938 19.0938 5.60938 36.375
Q5.60938 53.6562 14.8125 63.9375
Q24.0312 74.2188 39.4062 74.2188" id="DejaVuSans-4f"/>
       <path d="
M32.1719 -5.07812
Q28.375 -14.8438 24.75 -17.8125
Q21.1406 -20.7969 15.0938 -20.7969
L7.90625 -20.7969
L7.90625 -13.2812
L13.1875 -13.2812
Q16.8906 -13.2812 18.9375 -11.5156
Q21 -9.76562 23.4844 -3.21875
L25.0938 0.875
L2.98438 54.6875
L12.5 54.6875
L29.5938 11.9219
L46.6875 54.6875
L56.2031 54.6875
z
" id="DejaVuSans-79"/>
       <path d="
M40.5781 39.3125
Q47.6562 37.7969 51.625 33
Q55.6094 28.2188 55.6094 21.1875
Q55.6094 10.4062 48.1875 4.48438
Q40.7656 -1.42188 27.0938 -1.42188
Q22.5156 -1.42188 17.6562 -0.515625
Q12.7969 0.390625 7.625 2.20312
L7.625 11.7188
Q11.7188 9.32812 16.5938 8.10938
Q21.4844 6.89062 26.8125 6.89062
Q36.0781 6.89062 40.9375 10.5469
Q45.7969 14.2031 45.7969 21.1875
Q45.7969 27.6406 41.2812 31.2656
Q36.7656 34.9062 28.7188 34.9062
L20.2188 34.9062
L20.2188 43.0156
L29.1094 43.0156
Q36.375 43.0156 40.2344 45.9219
Q44.0938 48.8281 44.0938 54.2969
Q44.0938 59.9062 40.1094 62.9062
Q36.1406 65.9219 28.7188 65.9219
Q24.6562 65.9219 20.0156 65.0312
Q15.375 64.1562 9.8125 62.3125
L9.8125 71.0938
Q15.4375 72.6562 20.3438 73.4375
Q25.25 74.2188 29.5938 74.2188
Q40.8281 74.2188 47.3594 69.1094
Q53.9062 64.0156 53.9062 55.3281
Q53.9062 49.2656 50.4375 45.0938
Q46.9688 40.9219 40.5781 39.3125" id="DejaVuSans-33"/>
      </defs>
      <g transform="translate(470.263254721 469.3044375)rotate(-90.0)scale(0.14 -0.14)">
       <use xlink:href="#DejaVuSans-44"/>
       <use x="77.001953125" xlink:href="#DejaVuSans-61"/>
       <use x="138.28125" xlink:href="#DejaVuSans-79"/>
       <use x="197.4609375" xlink:href="#DejaVuSans-4f"/>
       <use x="276.171875" xlink:href="#DejaVuSans-66"/>
       <use x="311.376953125" xlink:href="#DejaVuSans-57"/>
       <use x="404.37890625" xlink:href="#DejaVuSans-65"/>
       <use x="465.90234375" xlink:href="#DejaVuSans-65"/>
       <use x="527.42578125" xlink:href="#DejaVuSans-6b"/>
       <use x="585.3359375" xlink:href="#DejaVuSans-3d"/>
       <use x="669.125" xlink:href="#DejaVuSans-33"/>
      </g>
     </g>
    </g>
   </g>
   <g id="matplotlib.axis_2">
    <g id="ytick_1">
     <g id="line2d_19">
      <defs>
       <path d="
M0 0
L4 0" id="m728421d6d4" style="stroke:#000000;stroke-width:0.5;"/>
      </defs>
      <g>
       <use style="stroke:#000000;stroke-width:0.5;" x="175.635" xlink:href="#m728421d6d4" y="350.4519"/>
      </g>
     </g>
     <g id="line2d_20">
      <defs>
       <path d="
M0 0
L-4 0" id="mcb0005524f" style="stroke:#000000;stroke-width:0.5;"/>
      </defs>
      <g>
       <use style="stroke:#000000;stroke-width:0.5;" x="509.119177215" xlink:href="#mcb0005524f" y="350.4519"/>
      </g>
     </g>
     <g id="text_10">
      <!-- 0.00 -->
      <defs>
       <path d="
M31.7812 66.4062
Q24.1719 66.4062 20.3281 58.9062
Q16.5 51.4219 16.5 36.375
Q16.5 21.3906 20.3281 13.8906
Q24.1719 6.39062 31.7812 6.39062
Q39.4531 6.39062 43.2812 13.8906
Q47.125 21.3906 47.125 36.375
Q47.125 51.4219 43.2812 58.9062
Q39.4531 66.4062 31.7812 66.4062
M31.7812 74.2188
Q44.0469 74.2188 50.5156 64.5156
Q56.9844 54.8281 56.9844 36.375
Q56.9844 17.9688 50.5156 8.26562
Q44.0469 -1.42188 31.7812 -1.42188
Q19.5312 -1.42188 13.0625 8.26562
Q6.59375 17.9688 6.59375 36.375
Q6.59375 54.8281 13.0625 64.5156
Q19.5312 74.2188 31.7812 74.2188" id="DejaVuSans-30"/>
       <path d="
M10.6875 12.4062
L21 12.4062
L21 0
L10.6875 0
z
" id="DejaVuSans-2e"/>
      </defs>
      <g transform="translate(146.504375 353.76315)scale(0.12 -0.12)">
       <use xlink:href="#DejaVuSans-30"/>
       <use x="63.623046875" xlink:href="#DejaVuSans-2e"/>
       <use x="95.41015625" xlink:href="#DejaVuSans-30"/>
       <use x="159.033203125" xlink:href="#DejaVuSans-30"/>
      </g>
     </g>
    </g>
    <g id="ytick_2">
     <g id="line2d_21">
      <g>
       <use style="stroke:#000000;stroke-width:0.5;" x="175.635" xlink:href="#m728421d6d4" y="276.765212888"/>
      </g>
     </g>
     <g id="line2d_22">
      <g>
       <use style="stroke:#000000;stroke-width:0.5;" x="509.119177215" xlink:href="#mcb0005524f" y="276.765212888"/>
      </g>
     </g>
     <g id="text_11">
      <!-- 0.05 -->
      <defs>
       <path d="
M10.7969 72.9062
L49.5156 72.9062
L49.5156 64.5938
L19.8281 64.5938
L19.8281 46.7344
Q21.9688 47.4688 24.1094 47.8281
Q26.2656 48.1875 28.4219 48.1875
Q40.625 48.1875 47.75 41.5
Q54.8906 34.8125 54.8906 23.3906
Q54.8906 11.625 47.5625 5.09375
Q40.2344 -1.42188 26.9062 -1.42188
Q22.3125 -1.42188 17.5469 -0.640625
Q12.7969 0.140625 7.71875 1.70312
L7.71875 11.625
Q12.1094 9.23438 16.7969 8.0625
Q21.4844 6.89062 26.7031 6.89062
Q35.1562 6.89062 40.0781 11.3281
Q45.0156 15.7656 45.0156 23.3906
Q45.0156 31 40.0781 35.4375
Q35.1562 39.8906 26.7031 39.8906
Q22.75 39.8906 18.8125 39.0156
Q14.8906 38.1406 10.7969 36.2812
z
" id="DejaVuSans-35"/>
      </defs>
      <g transform="translate(146.755625 280.076462888)scale(0.12 -0.12)">
       <use xlink:href="#DejaVuSans-30"/>
       <use x="63.623046875" xlink:href="#DejaVuSans-2e"/>
       <use x="95.41015625" xlink:href="#DejaVuSans-30"/>
       <use x="159.033203125" xlink:href="#DejaVuSans-35"/>
      </g>
     </g>
    </g>
    <g id="ytick_3">
     <g id="line2d_23">
      <g>
       <use style="stroke:#000000;stroke-width:0.5;" x="175.635" xlink:href="#m728421d6d4" y="203.078525776"/>
      </g>
     </g>
     <g id="line2d_24">
      <g>
       <use style="stroke:#000000;stroke-width:0.5;" x="509.119177215" xlink:href="#mcb0005524f" y="203.078525776"/>
      </g>
     </g>
     <g id="text_12">
      <!-- 0.10 -->
      <defs>
       <path d="
M12.4062 8.29688
L28.5156 8.29688
L28.5156 63.9219
L10.9844 60.4062
L10.9844 69.3906
L28.4219 72.9062
L38.2812 72.9062
L38.2812 8.29688
L54.3906 8.29688
L54.3906 0
L12.4062 0
z
" id="DejaVuSans-31"/>
      </defs>
      <g transform="translate(146.504375 206.389775776)scale(0.12 -0.12)">
       <use xlink:href="#DejaVuSans-30"/>
       <use x="63.623046875" xlink:href="#DejaVuSans-2e"/>
       <use x="95.41015625" xlink:href="#DejaVuSans-31"/>
       <use x="159.033203125" xlink:href="#DejaVuSans-30"/>
      </g>
     </g>
    </g>
    <g id="ytick_4">
     <g id="line2d_25">
      <g>
       <use style="stroke:#000000;stroke-width:0.5;" x="175.635" xlink:href="#m728421d6d4" y="129.391838664"/>
      </g>
     </g>
     <g id="line2d_26">
      <g>
       <use style="stroke:#000000;stroke-width:0.5;" x="509.119177215" xlink:href="#mcb0005524f" y="129.391838664"/>
      </g>
     </g>
     <g id="text_13">
      <!-- 0.15 -->
      <g transform="translate(146.755625 132.703088664)scale(0.12 -0.12)">
       <use xlink:href="#DejaVuSans-30"/>
       <use x="63.623046875" xlink:href="#DejaVuSans-2e"/>
       <use x="95.41015625" xlink:href="#DejaVuSans-31"/>
       <use x="159.033203125" xlink:href="#DejaVuSans-35"/>
      </g>
     </g>
    </g>
    <g id="ytick_5">
     <g id="line2d_27">
      <g>
       <use style="stroke:#000000;stroke-width:0.5;" x="175.635" xlink:href="#m728421d6d4" y="55.7051515522"/>
      </g>
     </g>
     <g id="line2d_28">
      <g>
       <use style="stroke:#000000;stroke-width:0.5;" x="509.119177215" xlink:href="#mcb0005524f" y="55.7051515522"/>
      </g>
     </g>
     <g id="text_14">
      <!-- 0.20 -->
      <defs>
       <path d="
M19.1875 8.29688
L53.6094 8.29688
L53.6094 0
L7.32812 0
L7.32812 8.29688
Q12.9375 14.1094 22.625 23.8906
Q32.3281 33.6875 34.8125 36.5312
Q39.5469 41.8438 41.4219 45.5312
Q43.3125 49.2188 43.3125 52.7812
Q43.3125 58.5938 39.2344 62.25
Q35.1562 65.9219 28.6094 65.9219
Q23.9688 65.9219 18.8125 64.3125
Q13.6719 62.7031 7.8125 59.4219
L7.8125 69.3906
Q13.7656 71.7812 18.9375 73
Q24.125 74.2188 28.4219 74.2188
Q39.75 74.2188 46.4844 68.5469
Q53.2188 62.8906 53.2188 53.4219
Q53.2188 48.9219 51.5312 44.8906
Q49.8594 40.875 45.4062 35.4062
Q44.1875 33.9844 37.6406 27.2188
Q31.1094 20.4531 19.1875 8.29688" id="DejaVuSans-32"/>
      </defs>
      <g transform="translate(146.504375 59.0164015522)scale(0.12 -0.12)">
       <use xlink:href="#DejaVuSans-30"/>
       <use x="63.623046875" xlink:href="#DejaVuSans-2e"/>
       <use x="95.41015625" xlink:href="#DejaVuSans-32"/>
       <use x="159.033203125" xlink:href="#DejaVuSans-30"/>
      </g>
     </g>
    </g>
    <g id="text_15">
     <!-- Classifier Weight -->
     <defs>
      <path d="
M45.4062 27.9844
Q45.4062 37.75 41.375 43.1094
Q37.3594 48.4844 30.0781 48.4844
Q22.8594 48.4844 18.8281 43.1094
Q14.7969 37.75 14.7969 27.9844
Q14.7969 18.2656 18.8281 12.8906
Q22.8594 7.51562 30.0781 7.51562
Q37.3594 7.51562 41.375 12.8906
Q45.4062 18.2656 45.4062 27.9844
M54.3906 6.78125
Q54.3906 -7.17188 48.1875 -13.9844
Q42 -20.7969 29.2031 -20.7969
Q24.4688 -20.7969 20.2656 -20.0938
Q16.0625 -19.3906 12.1094 -17.9219
L12.1094 -9.1875
Q16.0625 -11.3281 19.9219 -12.3438
Q23.7812 -13.375 27.7812 -13.375
Q36.625 -13.375 41.0156 -8.76562
Q45.4062 -4.15625 45.4062 5.17188
L45.4062 9.625
Q42.625 4.78125 38.2812 2.39062
Q33.9375 0 27.875 0
Q17.8281 0 11.6719 7.65625
Q5.51562 15.3281 5.51562 27.9844
Q5.51562 40.6719 11.6719 48.3281
Q17.8281 56 27.875 56
Q33.9375 56 38.2812 53.6094
Q42.625 51.2188 45.4062 46.3906
L45.4062 54.6875
L54.3906 54.6875
z
" id="DejaVuSans-67"/>
     </defs>
     <g transform="translate(137.7609375 277.9434)rotate(-90.0)scale(0.18 -0.18)">
      <use xlink:href="#DejaVuSans-43"/>
      <use x="69.82421875" xlink:href="#DejaVuSans-6c"/>
      <use x="97.607421875" xlink:href="#DejaVuSans-61"/>
      <use x="158.88671875" xlink:href="#DejaVuSans-73"/>
      <use x="210.986328125" xlink:href="#DejaVuSans-73"/>
      <use x="263.0859375" xlink:href="#DejaVuSans-69"/>
      <use x="290.869140625" xlink:href="#DejaVuSans-66"/>
      <use x="326.07421875" xlink:href="#DejaVuSans-69"/>
      <use x="353.857421875" xlink:href="#DejaVuSans-65"/>
      <use x="415.380859375" xlink:href="#DejaVuSans-72"/>
      <use x="456.494140625" xlink:href="#DejaVuSans-20"/>
      <use x="488.28125" xlink:href="#DejaVuSans-57"/>
      <use x="581.283203125" xlink:href="#DejaVuSans-65"/>
      <use x="642.806640625" xlink:href="#DejaVuSans-69"/>
      <use x="670.58984375" xlink:href="#DejaVuSans-67"/>
      <use x="734.06640625" xlink:href="#DejaVuSans-68"/>
      <use x="797.4453125" xlink:href="#DejaVuSans-74"/>
     </g>
    </g>
   </g>
   <g id="patch_12">
    <path d="
M175.635 40.5108
L509.119 40.5108" style="fill:none;stroke:#000000;"/>
   </g>
   <g id="patch_13">
    <path d="
M509.119 365.211
L509.119 40.5108" style="fill:none;stroke:#000000;"/>
   </g>
   <g id="patch_14">
    <path d="
M175.635 365.211
L509.119 365.211" style="fill:none;stroke:#000000;"/>
   </g>
   <g id="patch_15">
    <path d="
M175.635 365.211
L175.635 40.5108" style="fill:none;stroke:#000000;"/>
   </g>
   <g id="text_16">
    <!-- Factors that cause flight cancellation, LGA-ORD -->
    <defs>
     <path d="
M11.7188 12.4062
L22.0156 12.4062
L22.0156 4
L14.0156 -11.625
L7.71875 -11.625
L11.7188 4
z
" id="DejaVuSans-2c"/>
     <path d="
M9.8125 72.9062
L51.7031 72.9062
L51.7031 64.5938
L19.6719 64.5938
L19.6719 43.1094
L48.5781 43.1094
L48.5781 34.8125
L19.6719 34.8125
L19.6719 0
L9.8125 0
z
" id="DejaVuSans-46"/>
     <path d="
M59.5156 10.4062
L59.5156 29.9844
L43.4062 29.9844
L43.4062 38.0938
L69.2812 38.0938
L69.2812 6.78125
Q63.5781 2.73438 56.6875 0.65625
Q49.8125 -1.42188 42 -1.42188
Q24.9062 -1.42188 15.25 8.5625
Q5.60938 18.5625 5.60938 36.375
Q5.60938 54.25 15.25 64.2344
Q24.9062 74.2188 42 74.2188
Q49.125 74.2188 55.5469 72.4531
Q61.9688 70.7031 67.3906 67.2812
L67.3906 56.7812
Q61.9219 61.4219 55.7656 63.7656
Q49.6094 66.1094 42.8281 66.1094
Q29.4375 66.1094 22.7188 58.6406
Q16.0156 51.1719 16.0156 36.375
Q16.0156 21.625 22.7188 14.1562
Q29.4375 6.6875 42.8281 6.6875
Q48.0469 6.6875 52.1406 7.59375
Q56.25 8.5 59.5156 10.4062" id="DejaVuSans-47"/>
     <path d="
M34.1875 63.1875
L20.7969 26.9062
L47.6094 26.9062
z

M28.6094 72.9062
L39.7969 72.9062
L67.5781 0
L57.3281 0
L50.6875 18.7031
L17.8281 18.7031
L11.1875 0
L0.78125 0
z
" id="DejaVuSans-41"/>
    </defs>
    <g transform="translate(129.605838608 35.5108)scale(0.18 -0.18)">
     <use xlink:href="#DejaVuSans-46"/>
     <use x="48.39453125" xlink:href="#DejaVuSans-61"/>
     <use x="109.673828125" xlink:href="#DejaVuSans-63"/>
     <use x="164.654296875" xlink:href="#DejaVuSans-74"/>
     <use x="203.86328125" xlink:href="#DejaVuSans-6f"/>
     <use x="265.044921875" xlink:href="#DejaVuSans-72"/>
     <use x="306.158203125" xlink:href="#DejaVuSans-73"/>
     <use x="358.2578125" xlink:href="#DejaVuSans-20"/>
     <use x="390.044921875" xlink:href="#DejaVuSans-74"/>
     <use x="429.25390625" xlink:href="#DejaVuSans-68"/>
     <use x="492.6328125" xlink:href="#DejaVuSans-61"/>
     <use x="553.912109375" xlink:href="#DejaVuSans-74"/>
     <use x="593.12109375" xlink:href="#DejaVuSans-20"/>
     <use x="624.908203125" xlink:href="#DejaVuSans-63"/>
     <use x="679.888671875" xlink:href="#DejaVuSans-61"/>
     <use x="741.16796875" xlink:href="#DejaVuSans-75"/>
     <use x="804.546875" xlink:href="#DejaVuSans-73"/>
     <use x="856.646484375" xlink:href="#DejaVuSans-65"/>
     <use x="918.169921875" xlink:href="#DejaVuSans-20"/>
     <use x="949.95703125" xlink:href="#DejaVuSans-66"/>
     <use x="985.162109375" xlink:href="#DejaVuSans-6c"/>
     <use x="1012.9453125" xlink:href="#DejaVuSans-69"/>
     <use x="1040.72851562" xlink:href="#DejaVuSans-67"/>
     <use x="1104.20507812" xlink:href="#DejaVuSans-68"/>
     <use x="1167.58398438" xlink:href="#DejaVuSans-74"/>
     <use x="1206.79296875" xlink:href="#DejaVuSans-20"/>
     <use x="1238.58007812" xlink:href="#DejaVuSans-63"/>
     <use x="1293.56054688" xlink:href="#DejaVuSans-61"/>
     <use x="1354.83984375" xlink:href="#DejaVuSans-6e"/>
     <use x="1418.21875" xlink:href="#DejaVuSans-63"/>
     <use x="1473.19921875" xlink:href="#DejaVuSans-65"/>
     <use x="1534.72265625" xlink:href="#DejaVuSans-6c"/>
     <use x="1562.50585938" xlink:href="#DejaVuSans-6c"/>
     <use x="1590.2890625" xlink:href="#DejaVuSans-61"/>
     <use x="1651.56835938" xlink:href="#DejaVuSans-74"/>
     <use x="1690.77734375" xlink:href="#DejaVuSans-69"/>
     <use x="1718.56054688" xlink:href="#DejaVuSans-6f"/>
     <use x="1779.7421875" xlink:href="#DejaVuSans-6e"/>
     <use x="1843.12109375" xlink:href="#DejaVuSans-2c"/>
     <use x="1874.90820312" xlink:href="#DejaVuSans-20"/>
     <use x="1906.6953125" xlink:href="#DejaVuSans-4c"/>
     <use x="1962.40820312" xlink:href="#DejaVuSans-47"/>
     <use x="2039.8984375" xlink:href="#DejaVuSans-41"/>
     <use x="2106.05664062" xlink:href="#DejaVuSans-2d"/>
     <use x="2144.890625" xlink:href="#DejaVuSans-4f"/>
     <use x="2223.6015625" xlink:href="#DejaVuSans-52"/>
     <use x="2293.08398438" xlink:href="#DejaVuSans-44"/>
    </g>
   </g>
  </g>
  <g id="axes_2">
   <g id="patch_16">
    <path d="
M685.199 365.211
L1018.68 365.211
L1018.68 40.5108
L685.199 40.5108
z
" style="fill:#ffffff;"/>
   </g>
   <g id="patch_17">
    <path clip-path="url(#pa93af37c92)" d="
M700.357 350.452
L717.932 350.452
L717.932 196.948
L700.357 196.948
z
" style="fill:#0000ff;opacity:0.3;stroke:#000000;"/>
   </g>
   <g id="patch_18">
    <path clip-path="url(#pa93af37c92)" d="
M722.326 350.452
L739.901 350.452
L739.901 156.878
L722.326 156.878
z
" style="fill:#0000ff;opacity:0.3;stroke:#000000;"/>
   </g>
   <g id="patch_19">
    <path clip-path="url(#pa93af37c92)" d="
M744.295 350.452
L761.869 350.452
L761.869 160.343
L744.295 160.343
z
" style="fill:#0000ff;opacity:0.3;stroke:#000000;"/>
   </g>
   <g id="patch_20">
    <path clip-path="url(#pa93af37c92)" d="
M766.263 350.452
L783.838 350.452
L783.838 138.906
L766.263 138.906
z
" style="fill:#0000ff;opacity:0.3;stroke:#000000;"/>
   </g>
   <g id="patch_21">
    <path clip-path="url(#pa93af37c92)" d="
M788.232 350.452
L805.807 350.452
L805.807 202.597
L788.232 202.597
z
" style="fill:#0000ff;opacity:0.3;stroke:#000000;"/>
   </g>
   <g id="patch_22">
    <path clip-path="url(#pa93af37c92)" d="
M810.2 350.452
L827.775 350.452
L827.775 166.69
L810.2 166.69
z
" style="fill:#0000ff;opacity:0.3;stroke:#000000;"/>
   </g>
   <g id="patch_23">
    <path clip-path="url(#pa93af37c92)" d="
M832.169 350.452
L849.744 350.452
L849.744 158.685
L832.169 158.685
z
" style="fill:#0000ff;opacity:0.3;stroke:#000000;"/>
   </g>
   <g id="patch_24">
    <path clip-path="url(#pa93af37c92)" d="
M854.138 350.452
L871.713 350.452
L871.713 142.092
L854.138 142.092
z
" style="fill:#0000ff;opacity:0.3;stroke:#000000;"/>
   </g>
   <g id="patch_25">
    <path clip-path="url(#pa93af37c92)" d="
M876.106 350.452
L893.681 350.452
L893.681 176.378
L876.106 176.378
z
" style="fill:#0000ff;opacity:0.3;stroke:#000000;"/>
   </g>
   <g id="patch_26">
    <path clip-path="url(#pa93af37c92)" d="
M898.075 350.452
L915.65 350.452
L915.65 175.886
L898.075 175.886
z
" style="fill:#0000ff;opacity:0.3;stroke:#000000;"/>
   </g>
   <g id="patch_27">
    <path clip-path="url(#pa93af37c92)" d="
M920.044 350.452
L937.619 350.452
L937.619 55.2699
L920.044 55.2699
z
" style="fill:#0000ff;opacity:0.3;stroke:#000000;"/>
   </g>
   <g id="patch_28">
    <path clip-path="url(#pa93af37c92)" d="
M942.012 350.452
L959.587 350.452
L959.587 123.185
L942.012 123.185
z
" style="fill:#0000ff;opacity:0.3;stroke:#000000;"/>
   </g>
   <g id="patch_29">
    <path clip-path="url(#pa93af37c92)" d="
M963.981 350.452
L981.556 350.452
L981.556 121.023
L963.981 121.023
z
" style="fill:#0000ff;opacity:0.3;stroke:#000000;"/>
   </g>
   <g id="patch_30">
    <path clip-path="url(#pa93af37c92)" d="
M985.95 350.452
L1003.52 350.452
L1003.52 95.1957
L985.95 95.1957
z
" style="fill:#0000ff;opacity:0.3;stroke:#000000;"/>
   </g>
   <g id="matplotlib.axis_3">
    <g id="xtick_10">
     <g id="line2d_29">
      <g>
       <use style="stroke:#000000;stroke-width:0.5;" x="700.357194476" xlink:href="#m93b0483c22" y="365.211"/>
      </g>
     </g>
     <g id="line2d_30">
      <g>
       <use style="stroke:#000000;stroke-width:0.5;" x="700.357194476" xlink:href="#m741efc42ff" y="40.5108"/>
      </g>
     </g>
     <g id="text_17">
      <!-- Mean TemperatureF -->
      <g transform="translate(704.220319476 507.719125)rotate(-90.0)scale(0.14 -0.14)">
       <use xlink:href="#DejaVuSans-4d"/>
       <use x="86.279296875" xlink:href="#DejaVuSans-65"/>
       <use x="147.802734375" xlink:href="#DejaVuSans-61"/>
       <use x="209.08203125" xlink:href="#DejaVuSans-6e"/>
       <use x="272.4609375" xlink:href="#DejaVuSans-20"/>
       <use x="304.248046875" xlink:href="#DejaVuSans-54"/>
       <use x="348.33203125" xlink:href="#DejaVuSans-65"/>
       <use x="409.85546875" xlink:href="#DejaVuSans-6d"/>
       <use x="507.267578125" xlink:href="#DejaVuSans-70"/>
       <use x="570.744140625" xlink:href="#DejaVuSans-65"/>
       <use x="632.267578125" xlink:href="#DejaVuSans-72"/>
       <use x="673.380859375" xlink:href="#DejaVuSans-61"/>
       <use x="734.66015625" xlink:href="#DejaVuSans-74"/>
       <use x="773.869140625" xlink:href="#DejaVuSans-75"/>
       <use x="837.248046875" xlink:href="#DejaVuSans-72"/>
       <use x="876.111328125" xlink:href="#DejaVuSans-65"/>
       <use x="937.634765625" xlink:href="#DejaVuSans-46"/>
      </g>
     </g>
    </g>
    <g id="xtick_11">
     <g id="line2d_31">
      <g>
       <use style="stroke:#000000;stroke-width:0.5;" x="722.325849102" xlink:href="#m93b0483c22" y="365.211"/>
      </g>
     </g>
     <g id="line2d_32">
      <g>
       <use style="stroke:#000000;stroke-width:0.5;" x="722.325849102" xlink:href="#m741efc42ff" y="40.5108"/>
      </g>
     </g>
     <g id="text_18">
      <!--  Min VisibilityMiles -->
      <defs>
       <path d="
M48.6875 27.2969
Q48.6875 37.2031 44.6094 42.8438
Q40.5312 48.4844 33.4062 48.4844
Q26.2656 48.4844 22.1875 42.8438
Q18.1094 37.2031 18.1094 27.2969
Q18.1094 17.3906 22.1875 11.75
Q26.2656 6.10938 33.4062 6.10938
Q40.5312 6.10938 44.6094 11.75
Q48.6875 17.3906 48.6875 27.2969
M18.1094 46.3906
Q20.9531 51.2656 25.2656 53.625
Q29.5938 56 35.5938 56
Q45.5625 56 51.7812 48.0938
Q58.0156 40.1875 58.0156 27.2969
Q58.0156 14.4062 51.7812 6.48438
Q45.5625 -1.42188 35.5938 -1.42188
Q29.5938 -1.42188 25.2656 0.953125
Q20.9531 3.32812 18.1094 8.20312
L18.1094 0
L9.07812 0
L9.07812 75.9844
L18.1094 75.9844
z
" id="DejaVuSans-62"/>
       <path d="
M28.6094 0
L0.78125 72.9062
L11.0781 72.9062
L34.1875 11.5312
L57.3281 72.9062
L67.5781 72.9062
L39.7969 0
z
" id="DejaVuSans-56"/>
      </defs>
      <g transform="translate(726.188974102 496.6985)rotate(-90.0)scale(0.14 -0.14)">
       <use xlink:href="#DejaVuSans-20"/>
       <use x="31.787109375" xlink:href="#DejaVuSans-4d"/>
       <use x="118.06640625" xlink:href="#DejaVuSans-69"/>
       <use x="145.849609375" xlink:href="#DejaVuSans-6e"/>
       <use x="209.228515625" xlink:href="#DejaVuSans-20"/>
       <use x="241.015625" xlink:href="#DejaVuSans-56"/>
       <use x="307.173828125" xlink:href="#DejaVuSans-69"/>
       <use x="334.95703125" xlink:href="#DejaVuSans-73"/>
       <use x="387.056640625" xlink:href="#DejaVuSans-69"/>
       <use x="414.83984375" xlink:href="#DejaVuSans-62"/>
       <use x="478.31640625" xlink:href="#DejaVuSans-69"/>
       <use x="506.099609375" xlink:href="#DejaVuSans-6c"/>
       <use x="533.8828125" xlink:href="#DejaVuSans-69"/>
       <use x="561.666015625" xlink:href="#DejaVuSans-74"/>
       <use x="600.875" xlink:href="#DejaVuSans-79"/>
       <use x="660.0546875" xlink:href="#DejaVuSans-4d"/>
       <use x="746.333984375" xlink:href="#DejaVuSans-69"/>
       <use x="774.1171875" xlink:href="#DejaVuSans-6c"/>
       <use x="801.900390625" xlink:href="#DejaVuSans-65"/>
       <use x="863.423828125" xlink:href="#DejaVuSans-73"/>
      </g>
     </g>
    </g>
    <g id="xtick_12">
     <g id="line2d_33">
      <g>
       <use style="stroke:#000000;stroke-width:0.5;" x="744.294503727" xlink:href="#m93b0483c22" y="365.211"/>
      </g>
     </g>
     <g id="line2d_34">
      <g>
       <use style="stroke:#000000;stroke-width:0.5;" x="744.294503727" xlink:href="#m741efc42ff" y="40.5108"/>
      </g>
     </g>
     <g id="text_19">
      <!-- Mean TemperatureF_Dest -->
      <g transform="translate(747.768253727 547.374125)rotate(-90.0)scale(0.14 -0.14)">
       <use xlink:href="#DejaVuSans-4d"/>
       <use x="86.279296875" xlink:href="#DejaVuSans-65"/>
       <use x="147.802734375" xlink:href="#DejaVuSans-61"/>
       <use x="209.08203125" xlink:href="#DejaVuSans-6e"/>
       <use x="272.4609375" xlink:href="#DejaVuSans-20"/>
       <use x="304.248046875" xlink:href="#DejaVuSans-54"/>
       <use x="348.33203125" xlink:href="#DejaVuSans-65"/>
       <use x="409.85546875" xlink:href="#DejaVuSans-6d"/>
       <use x="507.267578125" xlink:href="#DejaVuSans-70"/>
       <use x="570.744140625" xlink:href="#DejaVuSans-65"/>
       <use x="632.267578125" xlink:href="#DejaVuSans-72"/>
       <use x="673.380859375" xlink:href="#DejaVuSans-61"/>
       <use x="734.66015625" xlink:href="#DejaVuSans-74"/>
       <use x="773.869140625" xlink:href="#DejaVuSans-75"/>
       <use x="837.248046875" xlink:href="#DejaVuSans-72"/>
       <use x="876.111328125" xlink:href="#DejaVuSans-65"/>
       <use x="937.634765625" xlink:href="#DejaVuSans-46"/>
       <use x="995.154296875" xlink:href="#DejaVuSans-5f"/>
       <use x="1045.15429688" xlink:href="#DejaVuSans-44"/>
       <use x="1122.15625" xlink:href="#DejaVuSans-65"/>
       <use x="1183.6796875" xlink:href="#DejaVuSans-73"/>
       <use x="1235.77929688" xlink:href="#DejaVuSans-74"/>
      </g>
     </g>
    </g>
    <g id="xtick_13">
     <g id="line2d_35">
      <g>
       <use style="stroke:#000000;stroke-width:0.5;" x="766.263158353" xlink:href="#m93b0483c22" y="365.211"/>
      </g>
     </g>
     <g id="line2d_36">
      <g>
       <use style="stroke:#000000;stroke-width:0.5;" x="766.263158353" xlink:href="#m741efc42ff" y="40.5108"/>
      </g>
     </g>
     <g id="text_20">
      <!--  Min VisibilityMiles_Dest -->
      <g transform="translate(769.931595853 536.22225)rotate(-90.0)scale(0.14 -0.14)">
       <use xlink:href="#DejaVuSans-20"/>
       <use x="31.787109375" xlink:href="#DejaVuSans-4d"/>
       <use x="118.06640625" xlink:href="#DejaVuSans-69"/>
       <use x="145.849609375" xlink:href="#DejaVuSans-6e"/>
       <use x="209.228515625" xlink:href="#DejaVuSans-20"/>
       <use x="241.015625" xlink:href="#DejaVuSans-56"/>
       <use x="307.173828125" xlink:href="#DejaVuSans-69"/>
       <use x="334.95703125" xlink:href="#DejaVuSans-73"/>
       <use x="387.056640625" xlink:href="#DejaVuSans-69"/>
       <use x="414.83984375" xlink:href="#DejaVuSans-62"/>
       <use x="478.31640625" xlink:href="#DejaVuSans-69"/>
       <use x="506.099609375" xlink:href="#DejaVuSans-6c"/>
       <use x="533.8828125" xlink:href="#DejaVuSans-69"/>
       <use x="561.666015625" xlink:href="#DejaVuSans-74"/>
       <use x="600.875" xlink:href="#DejaVuSans-79"/>
       <use x="660.0546875" xlink:href="#DejaVuSans-4d"/>
       <use x="746.333984375" xlink:href="#DejaVuSans-69"/>
       <use x="774.1171875" xlink:href="#DejaVuSans-6c"/>
       <use x="801.900390625" xlink:href="#DejaVuSans-65"/>
       <use x="863.423828125" xlink:href="#DejaVuSans-73"/>
       <use x="915.5234375" xlink:href="#DejaVuSans-5f"/>
       <use x="965.5234375" xlink:href="#DejaVuSans-44"/>
       <use x="1042.52539062" xlink:href="#DejaVuSans-65"/>
       <use x="1104.04882812" xlink:href="#DejaVuSans-73"/>
       <use x="1156.1484375" xlink:href="#DejaVuSans-74"/>
      </g>
     </g>
    </g>
    <g id="xtick_14">
     <g id="line2d_37">
      <g>
       <use style="stroke:#000000;stroke-width:0.5;" x="788.231812978" xlink:href="#m93b0483c22" y="365.211"/>
      </g>
     </g>
     <g id="line2d_38">
      <g>
       <use style="stroke:#000000;stroke-width:0.5;" x="788.231812978" xlink:href="#m741efc42ff" y="40.5108"/>
      </g>
     </g>
     <g id="text_21">
      <!--  Events=Snow -->
      <defs>
       <path d="
M4.20312 54.6875
L13.1875 54.6875
L24.4219 12.0156
L35.5938 54.6875
L46.1875 54.6875
L57.4219 12.0156
L68.6094 54.6875
L77.5938 54.6875
L63.2812 0
L52.6875 0
L40.9219 44.8281
L29.1094 0
L18.5 0
z
" id="DejaVuSans-77"/>
      </defs>
      <g transform="translate(792.094937978 469.9825625)rotate(-90.0)scale(0.14 -0.14)">
       <use xlink:href="#DejaVuSans-20"/>
       <use x="31.787109375" xlink:href="#DejaVuSans-45"/>
       <use x="94.970703125" xlink:href="#DejaVuSans-76"/>
       <use x="154.150390625" xlink:href="#DejaVuSans-65"/>
       <use x="215.673828125" xlink:href="#DejaVuSans-6e"/>
       <use x="279.052734375" xlink:href="#DejaVuSans-74"/>
       <use x="318.26171875" xlink:href="#DejaVuSans-73"/>
       <use x="370.361328125" xlink:href="#DejaVuSans-3d"/>
       <use x="454.150390625" xlink:href="#DejaVuSans-53"/>
       <use x="517.626953125" xlink:href="#DejaVuSans-6e"/>
       <use x="581.005859375" xlink:href="#DejaVuSans-6f"/>
       <use x="642.1875" xlink:href="#DejaVuSans-77"/>
      </g>
     </g>
    </g>
    <g id="xtick_15">
     <g id="line2d_39">
      <g>
       <use style="stroke:#000000;stroke-width:0.5;" x="810.200467604" xlink:href="#m93b0483c22" y="365.211"/>
      </g>
     </g>
     <g id="line2d_40">
      <g>
       <use style="stroke:#000000;stroke-width:0.5;" x="810.200467604" xlink:href="#m741efc42ff" y="40.5108"/>
      </g>
     </g>
     <g id="text_22">
      <!--  Events_Dest=Snow -->
      <g transform="translate(813.745311354 509.1585)rotate(-90.0)scale(0.14 -0.14)">
       <use xlink:href="#DejaVuSans-20"/>
       <use x="31.787109375" xlink:href="#DejaVuSans-45"/>
       <use x="94.970703125" xlink:href="#DejaVuSans-76"/>
       <use x="154.150390625" xlink:href="#DejaVuSans-65"/>
       <use x="215.673828125" xlink:href="#DejaVuSans-6e"/>
       <use x="279.052734375" xlink:href="#DejaVuSans-74"/>
       <use x="318.26171875" xlink:href="#DejaVuSans-73"/>
       <use x="370.361328125" xlink:href="#DejaVuSans-5f"/>
       <use x="420.361328125" xlink:href="#DejaVuSans-44"/>
       <use x="497.36328125" xlink:href="#DejaVuSans-65"/>
       <use x="558.88671875" xlink:href="#DejaVuSans-73"/>
       <use x="610.986328125" xlink:href="#DejaVuSans-74"/>
       <use x="650.1953125" xlink:href="#DejaVuSans-3d"/>
       <use x="733.984375" xlink:href="#DejaVuSans-53"/>
       <use x="797.4609375" xlink:href="#DejaVuSans-6e"/>
       <use x="860.83984375" xlink:href="#DejaVuSans-6f"/>
       <use x="922.021484375" xlink:href="#DejaVuSans-77"/>
      </g>
     </g>
    </g>
    <g id="xtick_16">
     <g id="line2d_41">
      <g>
       <use style="stroke:#000000;stroke-width:0.5;" x="832.169122229" xlink:href="#m93b0483c22" y="365.211"/>
      </g>
     </g>
     <g id="line2d_42">
      <g>
       <use style="stroke:#000000;stroke-width:0.5;" x="832.169122229" xlink:href="#m741efc42ff" y="40.5108"/>
      </g>
     </g>
     <g id="text_23">
      <!-- CRSDepTime=6.0 -->
      <defs>
       <path d="
M33.0156 40.375
Q26.375 40.375 22.4844 35.8281
Q18.6094 31.2969 18.6094 23.3906
Q18.6094 15.5312 22.4844 10.9531
Q26.375 6.39062 33.0156 6.39062
Q39.6562 6.39062 43.5312 10.9531
Q47.4062 15.5312 47.4062 23.3906
Q47.4062 31.2969 43.5312 35.8281
Q39.6562 40.375 33.0156 40.375
M52.5938 71.2969
L52.5938 62.3125
Q48.875 64.0625 45.0938 64.9844
Q41.3125 65.9219 37.5938 65.9219
Q27.8281 65.9219 22.6719 59.3281
Q17.5312 52.7344 16.7969 39.4062
Q19.6719 43.6562 24.0156 45.9219
Q28.375 48.1875 33.5938 48.1875
Q44.5781 48.1875 50.9531 41.5156
Q57.3281 34.8594 57.3281 23.3906
Q57.3281 12.1562 50.6875 5.35938
Q44.0469 -1.42188 33.0156 -1.42188
Q20.3594 -1.42188 13.6719 8.26562
Q6.98438 17.9688 6.98438 36.375
Q6.98438 53.6562 15.1875 63.9375
Q23.3906 74.2188 37.2031 74.2188
Q40.9219 74.2188 44.7031 73.4844
Q48.4844 72.75 52.5938 71.2969" id="DejaVuSans-36"/>
      </defs>
      <g transform="translate(836.032247229 492.41975)rotate(-90.0)scale(0.14 -0.14)">
       <use xlink:href="#DejaVuSans-43"/>
       <use x="69.82421875" xlink:href="#DejaVuSans-52"/>
       <use x="139.306640625" xlink:href="#DejaVuSans-53"/>
       <use x="202.783203125" xlink:href="#DejaVuSans-44"/>
       <use x="279.78515625" xlink:href="#DejaVuSans-65"/>
       <use x="341.30859375" xlink:href="#DejaVuSans-70"/>
       <use x="404.78515625" xlink:href="#DejaVuSans-54"/>
       <use x="462.744140625" xlink:href="#DejaVuSans-69"/>
       <use x="490.52734375" xlink:href="#DejaVuSans-6d"/>
       <use x="587.939453125" xlink:href="#DejaVuSans-65"/>
       <use x="649.462890625" xlink:href="#DejaVuSans-3d"/>
       <use x="733.251953125" xlink:href="#DejaVuSans-36"/>
       <use x="796.875" xlink:href="#DejaVuSans-2e"/>
       <use x="828.662109375" xlink:href="#DejaVuSans-30"/>
      </g>
     </g>
    </g>
    <g id="xtick_17">
     <g id="line2d_43">
      <g>
       <use style="stroke:#000000;stroke-width:0.5;" x="854.137776855" xlink:href="#m93b0483c22" y="365.211"/>
      </g>
     </g>
     <g id="line2d_44">
      <g>
       <use style="stroke:#000000;stroke-width:0.5;" x="854.137776855" xlink:href="#m741efc42ff" y="40.5108"/>
      </g>
     </g>
     <g id="text_24">
      <!-- CRSDepTime=7.0 -->
      <defs>
       <path d="
M8.20312 72.9062
L55.0781 72.9062
L55.0781 68.7031
L28.6094 0
L18.3125 0
L43.2188 64.5938
L8.20312 64.5938
z
" id="DejaVuSans-37"/>
      </defs>
      <g transform="translate(858.000901855 492.41975)rotate(-90.0)scale(0.14 -0.14)">
       <use xlink:href="#DejaVuSans-43"/>
       <use x="69.82421875" xlink:href="#DejaVuSans-52"/>
       <use x="139.306640625" xlink:href="#DejaVuSans-53"/>
       <use x="202.783203125" xlink:href="#DejaVuSans-44"/>
       <use x="279.78515625" xlink:href="#DejaVuSans-65"/>
       <use x="341.30859375" xlink:href="#DejaVuSans-70"/>
       <use x="404.78515625" xlink:href="#DejaVuSans-54"/>
       <use x="462.744140625" xlink:href="#DejaVuSans-69"/>
       <use x="490.52734375" xlink:href="#DejaVuSans-6d"/>
       <use x="587.939453125" xlink:href="#DejaVuSans-65"/>
       <use x="649.462890625" xlink:href="#DejaVuSans-3d"/>
       <use x="733.251953125" xlink:href="#DejaVuSans-37"/>
       <use x="796.875" xlink:href="#DejaVuSans-2e"/>
       <use x="828.662109375" xlink:href="#DejaVuSans-30"/>
      </g>
     </g>
    </g>
    <g id="xtick_18">
     <g id="line2d_45">
      <g>
       <use style="stroke:#000000;stroke-width:0.5;" x="876.10643148" xlink:href="#m93b0483c22" y="365.211"/>
      </g>
     </g>
     <g id="line2d_46">
      <g>
       <use style="stroke:#000000;stroke-width:0.5;" x="876.10643148" xlink:href="#m741efc42ff" y="40.5108"/>
      </g>
     </g>
     <g id="text_25">
      <!-- DayOfWeek=6 -->
      <g transform="translate(879.96955648 469.5450625)rotate(-90.0)scale(0.14 -0.14)">
       <use xlink:href="#DejaVuSans-44"/>
       <use x="77.001953125" xlink:href="#DejaVuSans-61"/>
       <use x="138.28125" xlink:href="#DejaVuSans-79"/>
       <use x="197.4609375" xlink:href="#DejaVuSans-4f"/>
       <use x="276.171875" xlink:href="#DejaVuSans-66"/>
       <use x="311.376953125" xlink:href="#DejaVuSans-57"/>
       <use x="404.37890625" xlink:href="#DejaVuSans-65"/>
       <use x="465.90234375" xlink:href="#DejaVuSans-65"/>
       <use x="527.42578125" xlink:href="#DejaVuSans-6b"/>
       <use x="585.3359375" xlink:href="#DejaVuSans-3d"/>
       <use x="669.125" xlink:href="#DejaVuSans-36"/>
      </g>
     </g>
    </g>
    <g id="xtick_19">
     <g id="line2d_47">
      <g>
       <use style="stroke:#000000;stroke-width:0.5;" x="898.075086106" xlink:href="#m93b0483c22" y="365.211"/>
      </g>
     </g>
     <g id="line2d_48">
      <g>
       <use style="stroke:#000000;stroke-width:0.5;" x="898.075086106" xlink:href="#m741efc42ff" y="40.5108"/>
      </g>
     </g>
     <g id="text_26">
      <!-- DayOfWeek=7 -->
      <g transform="translate(901.938211106 469.2300625)rotate(-90.0)scale(0.14 -0.14)">
       <use xlink:href="#DejaVuSans-44"/>
       <use x="77.001953125" xlink:href="#DejaVuSans-61"/>
       <use x="138.28125" xlink:href="#DejaVuSans-79"/>
       <use x="197.4609375" xlink:href="#DejaVuSans-4f"/>
       <use x="276.171875" xlink:href="#DejaVuSans-66"/>
       <use x="311.376953125" xlink:href="#DejaVuSans-57"/>
       <use x="404.37890625" xlink:href="#DejaVuSans-65"/>
       <use x="465.90234375" xlink:href="#DejaVuSans-65"/>
       <use x="527.42578125" xlink:href="#DejaVuSans-6b"/>
       <use x="585.3359375" xlink:href="#DejaVuSans-3d"/>
       <use x="669.125" xlink:href="#DejaVuSans-37"/>
      </g>
     </g>
    </g>
    <g id="xtick_20">
     <g id="line2d_49">
      <g>
       <use style="stroke:#000000;stroke-width:0.5;" x="920.043740731" xlink:href="#m93b0483c22" y="365.211"/>
      </g>
     </g>
     <g id="line2d_50">
      <g>
       <use style="stroke:#000000;stroke-width:0.5;" x="920.043740731" xlink:href="#m741efc42ff" y="40.5108"/>
      </g>
     </g>
     <g id="text_27">
      <!-- Month=10 -->
      <g transform="translate(923.906865731 440.3331875)rotate(-90.0)scale(0.14 -0.14)">
       <use xlink:href="#DejaVuSans-4d"/>
       <use x="86.279296875" xlink:href="#DejaVuSans-6f"/>
       <use x="147.4609375" xlink:href="#DejaVuSans-6e"/>
       <use x="210.83984375" xlink:href="#DejaVuSans-74"/>
       <use x="250.048828125" xlink:href="#DejaVuSans-68"/>
       <use x="313.427734375" xlink:href="#DejaVuSans-3d"/>
       <use x="397.216796875" xlink:href="#DejaVuSans-31"/>
       <use x="460.83984375" xlink:href="#DejaVuSans-30"/>
      </g>
     </g>
    </g>
    <g id="xtick_21">
     <g id="line2d_51">
      <g>
       <use style="stroke:#000000;stroke-width:0.5;" x="942.012395357" xlink:href="#m93b0483c22" y="365.211"/>
      </g>
     </g>
     <g id="line2d_52">
      <g>
       <use style="stroke:#000000;stroke-width:0.5;" x="942.012395357" xlink:href="#m741efc42ff" y="40.5108"/>
      </g>
     </g>
     <g id="text_28">
      <!-- Month=11 -->
      <g transform="translate(945.875520357 439.9700625)rotate(-90.0)scale(0.14 -0.14)">
       <use xlink:href="#DejaVuSans-4d"/>
       <use x="86.279296875" xlink:href="#DejaVuSans-6f"/>
       <use x="147.4609375" xlink:href="#DejaVuSans-6e"/>
       <use x="210.83984375" xlink:href="#DejaVuSans-74"/>
       <use x="250.048828125" xlink:href="#DejaVuSans-68"/>
       <use x="313.427734375" xlink:href="#DejaVuSans-3d"/>
       <use x="397.216796875" xlink:href="#DejaVuSans-31"/>
       <use x="460.83984375" xlink:href="#DejaVuSans-31"/>
      </g>
     </g>
    </g>
    <g id="xtick_22">
     <g id="line2d_53">
      <g>
       <use style="stroke:#000000;stroke-width:0.5;" x="963.981049982" xlink:href="#m93b0483c22" y="365.211"/>
      </g>
     </g>
     <g id="line2d_54">
      <g>
       <use style="stroke:#000000;stroke-width:0.5;" x="963.981049982" xlink:href="#m741efc42ff" y="40.5108"/>
      </g>
     </g>
     <g id="text_29">
      <!-- Month=12 -->
      <g transform="translate(967.844174982 439.8606875)rotate(-90.0)scale(0.14 -0.14)">
       <use xlink:href="#DejaVuSans-4d"/>
       <use x="86.279296875" xlink:href="#DejaVuSans-6f"/>
       <use x="147.4609375" xlink:href="#DejaVuSans-6e"/>
       <use x="210.83984375" xlink:href="#DejaVuSans-74"/>
       <use x="250.048828125" xlink:href="#DejaVuSans-68"/>
       <use x="313.427734375" xlink:href="#DejaVuSans-3d"/>
       <use x="397.216796875" xlink:href="#DejaVuSans-31"/>
       <use x="460.83984375" xlink:href="#DejaVuSans-32"/>
      </g>
     </g>
    </g>
    <g id="xtick_23">
     <g id="line2d_55">
      <g>
       <use style="stroke:#000000;stroke-width:0.5;" x="985.949704608" xlink:href="#m93b0483c22" y="365.211"/>
      </g>
     </g>
     <g id="line2d_56">
      <g>
       <use style="stroke:#000000;stroke-width:0.5;" x="985.949704608" xlink:href="#m741efc42ff" y="40.5108"/>
      </g>
     </g>
     <g id="text_30">
      <!-- Month=9 -->
      <defs>
       <path d="
M10.9844 1.51562
L10.9844 10.5
Q14.7031 8.73438 18.5 7.8125
Q22.3125 6.89062 25.9844 6.89062
Q35.75 6.89062 40.8906 13.4531
Q46.0469 20.0156 46.7812 33.4062
Q43.9531 29.2031 39.5938 26.9531
Q35.25 24.7031 29.9844 24.7031
Q19.0469 24.7031 12.6719 31.3125
Q6.29688 37.9375 6.29688 49.4219
Q6.29688 60.6406 12.9375 67.4219
Q19.5781 74.2188 30.6094 74.2188
Q43.2656 74.2188 49.9219 64.5156
Q56.5938 54.8281 56.5938 36.375
Q56.5938 19.1406 48.4062 8.85938
Q40.2344 -1.42188 26.4219 -1.42188
Q22.7031 -1.42188 18.8906 -0.6875
Q15.0938 0.046875 10.9844 1.51562
M30.6094 32.4219
Q37.25 32.4219 41.125 36.9531
Q45.0156 41.5 45.0156 49.4219
Q45.0156 57.2812 41.125 61.8438
Q37.25 66.4062 30.6094 66.4062
Q23.9688 66.4062 20.0938 61.8438
Q16.2188 57.2812 16.2188 49.4219
Q16.2188 41.5 20.0938 36.9531
Q23.9688 32.4219 30.6094 32.4219" id="DejaVuSans-39"/>
      </defs>
      <g transform="translate(989.812829608 431.371)rotate(-90.0)scale(0.14 -0.14)">
       <use xlink:href="#DejaVuSans-4d"/>
       <use x="86.279296875" xlink:href="#DejaVuSans-6f"/>
       <use x="147.4609375" xlink:href="#DejaVuSans-6e"/>
       <use x="210.83984375" xlink:href="#DejaVuSans-74"/>
       <use x="250.048828125" xlink:href="#DejaVuSans-68"/>
       <use x="313.427734375" xlink:href="#DejaVuSans-3d"/>
       <use x="397.216796875" xlink:href="#DejaVuSans-39"/>
      </g>
     </g>
    </g>
   </g>
   <g id="matplotlib.axis_4">
    <g id="ytick_6">
     <g id="line2d_57">
      <g>
       <use style="stroke:#000000;stroke-width:0.5;" x="685.198822785" xlink:href="#m728421d6d4" y="350.4519"/>
      </g>
     </g>
     <g id="line2d_58">
      <g>
       <use style="stroke:#000000;stroke-width:0.5;" x="1018.683" xlink:href="#mcb0005524f" y="350.4519"/>
      </g>
     </g>
     <g id="text_31">
      <!-- 0.00 -->
      <g transform="translate(656.068197785 353.76315)scale(0.12 -0.12)">
       <use xlink:href="#DejaVuSans-30"/>
       <use x="63.623046875" xlink:href="#DejaVuSans-2e"/>
       <use x="95.41015625" xlink:href="#DejaVuSans-30"/>
       <use x="159.033203125" xlink:href="#DejaVuSans-30"/>
      </g>
     </g>
    </g>
    <g id="ytick_7">
     <g id="line2d_59">
      <g>
       <use style="stroke:#000000;stroke-width:0.5;" x="685.198822785" xlink:href="#m728421d6d4" y="277.974462022"/>
      </g>
     </g>
     <g id="line2d_60">
      <g>
       <use style="stroke:#000000;stroke-width:0.5;" x="1018.683" xlink:href="#mcb0005524f" y="277.974462022"/>
      </g>
     </g>
     <g id="text_32">
      <!-- 0.05 -->
      <g transform="translate(656.319447785 281.285712022)scale(0.12 -0.12)">
       <use xlink:href="#DejaVuSans-30"/>
       <use x="63.623046875" xlink:href="#DejaVuSans-2e"/>
       <use x="95.41015625" xlink:href="#DejaVuSans-30"/>
       <use x="159.033203125" xlink:href="#DejaVuSans-35"/>
      </g>
     </g>
    </g>
    <g id="ytick_8">
     <g id="line2d_61">
      <g>
       <use style="stroke:#000000;stroke-width:0.5;" x="685.198822785" xlink:href="#m728421d6d4" y="205.497024043"/>
      </g>
     </g>
     <g id="line2d_62">
      <g>
       <use style="stroke:#000000;stroke-width:0.5;" x="1018.683" xlink:href="#mcb0005524f" y="205.497024043"/>
      </g>
     </g>
     <g id="text_33">
      <!-- 0.10 -->
      <g transform="translate(656.068197785 208.808274043)scale(0.12 -0.12)">
       <use xlink:href="#DejaVuSans-30"/>
       <use x="63.623046875" xlink:href="#DejaVuSans-2e"/>
       <use x="95.41015625" xlink:href="#DejaVuSans-31"/>
       <use x="159.033203125" xlink:href="#DejaVuSans-30"/>
      </g>
     </g>
    </g>
    <g id="ytick_9">
     <g id="line2d_63">
      <g>
       <use style="stroke:#000000;stroke-width:0.5;" x="685.198822785" xlink:href="#m728421d6d4" y="133.019586065"/>
      </g>
     </g>
     <g id="line2d_64">
      <g>
       <use style="stroke:#000000;stroke-width:0.5;" x="1018.683" xlink:href="#mcb0005524f" y="133.019586065"/>
      </g>
     </g>
     <g id="text_34">
      <!-- 0.15 -->
      <g transform="translate(656.319447785 136.330836065)scale(0.12 -0.12)">
       <use xlink:href="#DejaVuSans-30"/>
       <use x="63.623046875" xlink:href="#DejaVuSans-2e"/>
       <use x="95.41015625" xlink:href="#DejaVuSans-31"/>
       <use x="159.033203125" xlink:href="#DejaVuSans-35"/>
      </g>
     </g>
    </g>
    <g id="ytick_10">
     <g id="line2d_65">
      <g>
       <use style="stroke:#000000;stroke-width:0.5;" x="685.198822785" xlink:href="#m728421d6d4" y="60.5421480868"/>
      </g>
     </g>
     <g id="line2d_66">
      <g>
       <use style="stroke:#000000;stroke-width:0.5;" x="1018.683" xlink:href="#mcb0005524f" y="60.5421480868"/>
      </g>
     </g>
     <g id="text_35">
      <!-- 0.20 -->
      <g transform="translate(656.068197785 63.8533980868)scale(0.12 -0.12)">
       <use xlink:href="#DejaVuSans-30"/>
       <use x="63.623046875" xlink:href="#DejaVuSans-2e"/>
       <use x="95.41015625" xlink:href="#DejaVuSans-32"/>
       <use x="159.033203125" xlink:href="#DejaVuSans-30"/>
      </g>
     </g>
    </g>
    <g id="text_36">
     <!-- Classifier Weight -->
     <g transform="translate(647.324760285 277.9434)rotate(-90.0)scale(0.18 -0.18)">
      <use xlink:href="#DejaVuSans-43"/>
      <use x="69.82421875" xlink:href="#DejaVuSans-6c"/>
      <use x="97.607421875" xlink:href="#DejaVuSans-61"/>
      <use x="158.88671875" xlink:href="#DejaVuSans-73"/>
      <use x="210.986328125" xlink:href="#DejaVuSans-73"/>
      <use x="263.0859375" xlink:href="#DejaVuSans-69"/>
      <use x="290.869140625" xlink:href="#DejaVuSans-66"/>
      <use x="326.07421875" xlink:href="#DejaVuSans-69"/>
      <use x="353.857421875" xlink:href="#DejaVuSans-65"/>
      <use x="415.380859375" xlink:href="#DejaVuSans-72"/>
      <use x="456.494140625" xlink:href="#DejaVuSans-20"/>
      <use x="488.28125" xlink:href="#DejaVuSans-57"/>
      <use x="581.283203125" xlink:href="#DejaVuSans-65"/>
      <use x="642.806640625" xlink:href="#DejaVuSans-69"/>
      <use x="670.58984375" xlink:href="#DejaVuSans-67"/>
      <use x="734.06640625" xlink:href="#DejaVuSans-68"/>
      <use x="797.4453125" xlink:href="#DejaVuSans-74"/>
     </g>
    </g>
   </g>
   <g id="patch_31">
    <path d="
M685.199 40.5108
L1018.68 40.5108" style="fill:none;stroke:#000000;"/>
   </g>
   <g id="patch_32">
    <path d="
M1018.68 365.211
L1018.68 40.5108" style="fill:none;stroke:#000000;"/>
   </g>
   <g id="patch_33">
    <path d="
M685.199 365.211
L1018.68 365.211" style="fill:none;stroke:#000000;"/>
   </g>
   <g id="patch_34">
    <path d="
M685.199 365.211
L685.199 40.5108" style="fill:none;stroke:#000000;"/>
   </g>
   <g id="text_37">
    <!-- Factors that keep flights from getting cancelled, LGA-ORD -->
    <g transform="translate(591.818411392 35.5108)scale(0.18 -0.18)">
     <use xlink:href="#DejaVuSans-46"/>
     <use x="48.39453125" xlink:href="#DejaVuSans-61"/>
     <use x="109.673828125" xlink:href="#DejaVuSans-63"/>
     <use x="164.654296875" xlink:href="#DejaVuSans-74"/>
     <use x="203.86328125" xlink:href="#DejaVuSans-6f"/>
     <use x="265.044921875" xlink:href="#DejaVuSans-72"/>
     <use x="306.158203125" xlink:href="#DejaVuSans-73"/>
     <use x="358.2578125" xlink:href="#DejaVuSans-20"/>
     <use x="390.044921875" xlink:href="#DejaVuSans-74"/>
     <use x="429.25390625" xlink:href="#DejaVuSans-68"/>
     <use x="492.6328125" xlink:href="#DejaVuSans-61"/>
     <use x="553.912109375" xlink:href="#DejaVuSans-74"/>
     <use x="593.12109375" xlink:href="#DejaVuSans-20"/>
     <use x="624.908203125" xlink:href="#DejaVuSans-6b"/>
     <use x="679.193359375" xlink:href="#DejaVuSans-65"/>
     <use x="740.716796875" xlink:href="#DejaVuSans-65"/>
     <use x="802.240234375" xlink:href="#DejaVuSans-70"/>
     <use x="865.716796875" xlink:href="#DejaVuSans-20"/>
     <use x="897.50390625" xlink:href="#DejaVuSans-66"/>
     <use x="932.708984375" xlink:href="#DejaVuSans-6c"/>
     <use x="960.4921875" xlink:href="#DejaVuSans-69"/>
     <use x="988.275390625" xlink:href="#DejaVuSans-67"/>
     <use x="1051.75195312" xlink:href="#DejaVuSans-68"/>
     <use x="1115.13085938" xlink:href="#DejaVuSans-74"/>
     <use x="1154.33984375" xlink:href="#DejaVuSans-73"/>
     <use x="1206.43945312" xlink:href="#DejaVuSans-20"/>
     <use x="1238.2265625" xlink:href="#DejaVuSans-66"/>
     <use x="1273.43164062" xlink:href="#DejaVuSans-72"/>
     <use x="1312.29492188" xlink:href="#DejaVuSans-6f"/>
     <use x="1373.4765625" xlink:href="#DejaVuSans-6d"/>
     <use x="1470.88867188" xlink:href="#DejaVuSans-20"/>
     <use x="1502.67578125" xlink:href="#DejaVuSans-67"/>
     <use x="1566.15234375" xlink:href="#DejaVuSans-65"/>
     <use x="1627.67578125" xlink:href="#DejaVuSans-74"/>
     <use x="1666.88476562" xlink:href="#DejaVuSans-74"/>
     <use x="1706.09375" xlink:href="#DejaVuSans-69"/>
     <use x="1733.87695312" xlink:href="#DejaVuSans-6e"/>
     <use x="1797.25585938" xlink:href="#DejaVuSans-67"/>
     <use x="1860.73242188" xlink:href="#DejaVuSans-20"/>
     <use x="1892.51953125" xlink:href="#DejaVuSans-63"/>
     <use x="1947.5" xlink:href="#DejaVuSans-61"/>
     <use x="2008.77929688" xlink:href="#DejaVuSans-6e"/>
     <use x="2072.15820312" xlink:href="#DejaVuSans-63"/>
     <use x="2127.13867188" xlink:href="#DejaVuSans-65"/>
     <use x="2188.66210938" xlink:href="#DejaVuSans-6c"/>
     <use x="2216.4453125" xlink:href="#DejaVuSans-6c"/>
     <use x="2244.22851562" xlink:href="#DejaVuSans-65"/>
     <use x="2305.75195312" xlink:href="#DejaVuSans-64"/>
     <use x="2369.22851562" xlink:href="#DejaVuSans-2c"/>
     <use x="2401.015625" xlink:href="#DejaVuSans-20"/>
     <use x="2432.80273438" xlink:href="#DejaVuSans-4c"/>
     <use x="2488.515625" xlink:href="#DejaVuSans-47"/>
     <use x="2566.00585938" xlink:href="#DejaVuSans-41"/>
     <use x="2632.1640625" xlink:href="#DejaVuSans-2d"/>
     <use x="2670.99804688" xlink:href="#DejaVuSans-4f"/>
     <use x="2749.70898438" xlink:href="#DejaVuSans-52"/>
     <use x="2819.19140625" xlink:href="#DejaVuSans-44"/>
    </g>
   </g>
  </g>
 </g>
 <defs>
  <clipPath id="pa93af37c92">
   <rect height="324.7002" width="333.484177215" x="685.198822785" y="40.5108"/>
  </clipPath>
  <clipPath id="p8c20a172c8">
   <rect height="324.7002" width="333.484177215" x="175.635" y="40.5108"/>
  </clipPath>
 </defs>
</svg>
